<svg width="645" height="497" viewBox="0 0 645 497" fill="none" xmlns="http://www.w3.org/2000/svg">
<path d="M638.935 297.402C627.844 266.311 610.25 256.856 593.557 236.855C573.162 212.418 559.402 194.824 564.703 163.545C573.331 112.415 577.091 -15.1825 441.598 1.49091C393.063 7.46853 354.697 44.7253 326.782 81.8128C303.041 113.412 260.314 116.212 225.934 123.562C183.677 132.623 140.649 146.288 101.513 166.327C21.0591 207.587 -2.98298 266.931 0.287796 342.798C1.28407 365.731 4.53604 401.841 43.259 444.098C95.535 501.149 171.515 508.78 262.946 482.595C283.868 476.599 303.643 467.181 324.245 460.038C345.654 452.667 367.856 447.841 390.393 445.658C442.914 440.583 497.351 449.775 547.729 434.098C574.494 425.729 598.701 410.712 618.088 390.45C642.149 365.336 650.702 330.185 638.935 297.402Z" fill="#EAE6FF"/>
<path d="M43.2401 414.454C43.2401 421.973 138.356 428.026 255.652 428.026C372.949 428.026 468.065 421.955 468.065 414.454C468.065 406.954 372.968 400.883 255.652 400.883C138.337 400.883 43.2401 406.954 43.2401 414.454Z" fill="#CDCCFF"/>
<path d="M172.943 431.222C172.943 435.902 148.788 439.718 119.013 439.718C89.2376 439.718 65.0828 435.959 65.0828 431.222C65.0828 426.485 89.2188 422.725 119.013 422.725C148.807 422.725 172.943 426.522 172.943 431.222Z" fill="#CDCCFF"/>
<path d="M531.657 439.718C581.634 439.718 622.148 436.705 622.148 432.989C622.148 429.272 581.634 426.259 531.657 426.259C481.68 426.259 441.166 429.272 441.166 432.989C441.166 436.705 481.68 439.718 531.657 439.718Z" fill="#CDCCFF"/>
<path d="M64.4815 321.219L61.0039 369.867H107.415L104.219 321.125L64.4815 321.219Z" fill="#D7D7FF"/>
<path d="M73.6923 325.486C73.7258 325.098 73.91 324.739 74.2053 324.486C74.5005 324.233 74.8833 324.106 75.2713 324.132C75.4679 324.099 75.6693 324.11 75.8615 324.162C76.0537 324.215 76.2321 324.309 76.3843 324.438C76.5364 324.567 76.6587 324.727 76.7425 324.908C76.8264 325.089 76.8698 325.286 76.8698 325.486C76.8698 325.685 76.8264 325.882 76.7425 326.063C76.6587 326.244 76.5364 326.404 76.3843 326.533C76.2321 326.662 76.0537 326.756 75.8615 326.809C75.6693 326.861 75.4679 326.872 75.2713 326.839C74.8833 326.865 74.5005 326.738 74.2053 326.485C73.91 326.232 73.7258 325.873 73.6923 325.486ZM75.2713 324.658C75.0204 324.631 74.7689 324.702 74.5692 324.857C74.3695 325.011 74.2372 325.236 74.1998 325.486C74.2372 325.735 74.3695 325.96 74.5692 326.115C74.7689 326.269 75.0204 326.34 75.2713 326.313C75.5242 326.34 75.7781 326.27 75.9809 326.116C76.1836 325.962 76.3198 325.737 76.3615 325.486C76.3615 325.016 75.8728 324.658 75.2713 324.658Z" fill="#EAE6FF"/>
<path d="M89.5011 325.448C89.5034 325.286 89.5378 325.126 89.6023 324.978C89.6668 324.829 89.7602 324.695 89.8771 324.583C90.2051 324.267 90.6435 324.092 91.0989 324.095C91.49 324.063 91.8776 324.188 92.1769 324.442C92.4763 324.695 92.6632 325.057 92.6967 325.448C92.6967 325.635 92.6524 325.819 92.5675 325.986C92.4825 326.153 92.3593 326.297 92.2079 326.407C91.8958 326.664 91.5034 326.804 91.0989 326.801C90.7089 326.828 90.324 326.701 90.0257 326.448C89.7275 326.196 89.5393 325.837 89.5011 325.448ZM91.0989 324.621C90.7858 324.611 90.4816 324.726 90.253 324.94C90.1834 325.006 90.1276 325.084 90.0889 325.171C90.0501 325.259 90.0292 325.353 90.0274 325.448C90.0648 325.697 90.1972 325.923 90.3968 326.077C90.5965 326.231 90.8481 326.302 91.0989 326.275C91.3845 326.281 91.6634 326.188 91.8884 326.012C91.9778 325.947 92.0514 325.862 92.1035 325.764C92.1555 325.667 92.1848 325.559 92.1891 325.448C92.1474 325.197 92.0112 324.971 91.8085 324.818C91.6058 324.664 91.3519 324.593 91.0989 324.621Z" fill="#EAE6FF"/>
<path d="M82.7151 335.279H83.1663C84.4019 335.321 85.6319 335.094 86.7712 334.614C87.9104 334.133 88.9316 333.411 89.7642 332.497C91.2895 330.462 91.9636 327.914 91.644 325.392C91.6348 325.325 91.6124 325.26 91.5779 325.202C91.5435 325.144 91.4978 325.093 91.4436 325.053C91.3893 325.013 91.3275 324.984 91.2619 324.967C91.1962 324.951 91.128 324.949 91.0613 324.959C90.9943 324.968 90.9298 324.991 90.8717 325.025C90.8135 325.06 90.7628 325.105 90.7225 325.16C90.6823 325.214 90.6532 325.276 90.6372 325.341C90.6211 325.407 90.6183 325.475 90.6289 325.542C90.8913 327.769 90.315 330.014 89.0123 331.839C88.2727 332.644 87.3665 333.278 86.3569 333.697C85.3472 334.115 84.2584 334.309 83.1663 334.264C82.1385 334.379 81.098 334.261 80.1219 333.919C79.1458 333.578 78.2589 333.021 77.527 332.29C76.1235 330.353 75.5117 327.953 75.8164 325.58C75.8271 325.513 75.8243 325.445 75.8082 325.379C75.7921 325.313 75.7631 325.252 75.7228 325.197C75.6826 325.143 75.6319 325.097 75.5737 325.063C75.5155 325.028 75.4511 325.006 75.3841 324.997C75.25 324.98 75.1148 325.016 75.0063 325.097C74.8979 325.177 74.8245 325.296 74.8014 325.429C74.4293 328.084 75.1033 330.78 76.6811 332.948C77.4572 333.752 78.399 334.377 79.4411 334.779C80.4831 335.182 81.6004 335.352 82.7151 335.279Z" fill="#EAE6FF"/>
<path d="M86.3054 334.847L80.7601 371.032L131.156 370.919L126.062 334.753L86.3054 334.847Z" fill="#BDC6F9"/>
<path d="M67.6769 395.939C65.6544 395.939 63.6774 396.538 61.9957 397.662C60.3141 398.786 59.0034 400.383 58.2295 402.251C57.4555 404.12 57.253 406.176 57.6475 408.16C58.0421 410.143 59.016 411.965 60.4461 413.395C61.8763 414.825 63.6983 415.799 65.682 416.194C67.6656 416.589 69.7217 416.386 71.5902 415.612C73.4587 414.838 75.0558 413.527 76.1794 411.846C77.303 410.164 77.9028 408.187 77.9028 406.165C77.8978 403.454 76.8189 400.856 74.9022 398.939C72.9856 397.023 70.3875 395.944 67.6769 395.939ZM67.6769 410.977C66.7371 410.973 65.8195 410.691 65.0399 410.166C64.2603 409.641 63.6537 408.897 63.2966 408.028C62.9395 407.159 62.848 406.203 63.0336 405.282C63.2192 404.36 63.6737 403.515 64.3395 402.852C65.0054 402.188 65.8528 401.737 66.7748 401.555C67.6968 401.373 68.6521 401.469 69.52 401.829C70.3879 402.19 71.1295 402.799 71.6513 403.581C72.173 404.362 72.4515 405.281 72.4515 406.221C72.4466 406.843 72.3192 407.458 72.0766 408.031C71.834 408.604 71.4809 409.123 71.0375 409.56C70.5942 409.996 70.0692 410.341 69.4926 410.574C68.916 410.808 68.299 410.925 67.6769 410.92V410.977Z" fill="#8784EF"/>
<path d="M65.9663 395.939C63.9439 395.939 61.9668 396.538 60.2852 397.662C58.6035 398.786 57.2929 400.383 56.5189 402.251C55.7449 404.12 55.5424 406.176 55.937 408.16C56.3315 410.143 57.3055 411.965 58.7356 413.395C60.1657 414.825 61.9878 415.799 63.9714 416.194C65.955 416.589 68.0111 416.386 69.8796 415.612C71.7482 414.838 73.3452 413.527 74.4688 411.846C75.5925 410.164 76.1922 408.187 76.1922 406.165C76.1922 403.453 75.1148 400.852 73.1971 398.934C71.2794 397.016 68.6784 395.939 65.9663 395.939ZM65.9663 410.977C65.0257 410.977 64.1063 410.698 63.3242 410.175C62.5421 409.653 61.9325 408.91 61.5726 408.041C61.2126 407.172 61.1184 406.216 61.3019 405.293C61.4855 404.371 61.9384 403.523 62.6035 402.858C63.2686 402.193 64.116 401.74 65.0385 401.557C65.9611 401.373 66.9173 401.467 67.7863 401.827C68.6553 402.187 69.3981 402.797 69.9206 403.579C70.4432 404.361 70.7221 405.28 70.7221 406.221C70.7073 407.472 70.1997 408.668 69.3094 409.547C68.4191 410.427 67.218 410.92 65.9663 410.92V410.977Z" fill="#9AA3F4"/>
<path d="M125.404 395.939C123.381 395.935 121.402 396.532 119.718 397.653C118.034 398.774 116.72 400.37 115.943 402.238C115.166 404.106 114.961 406.163 115.354 408.148C115.746 410.133 116.719 411.957 118.148 413.389C119.577 414.821 121.399 415.796 123.384 416.193C125.368 416.589 127.425 416.387 129.294 415.614C131.164 414.84 132.762 413.53 133.887 411.848C135.011 410.166 135.611 408.188 135.611 406.165C135.611 403.456 134.537 400.858 132.623 398.94C130.709 397.023 128.113 395.944 125.404 395.939ZM125.404 410.977C124.464 410.977 123.544 410.698 122.762 410.175C121.98 409.653 121.37 408.91 121.01 408.041C120.65 407.172 120.556 406.216 120.74 405.293C120.923 404.371 121.376 403.523 122.041 402.858C122.706 402.193 123.554 401.74 124.476 401.557C125.399 401.373 126.355 401.467 127.224 401.827C128.093 402.187 128.836 402.797 129.359 403.579C129.881 404.361 130.16 405.28 130.16 406.221C130.145 407.473 129.638 408.668 128.747 409.547C127.857 410.427 126.656 410.92 125.404 410.92V410.977Z" fill="#8784EF"/>
<path d="M123.712 395.939C121.69 395.939 119.713 396.538 118.031 397.662C116.349 398.786 115.039 400.383 114.265 402.251C113.491 404.12 113.288 406.176 113.683 408.16C114.078 410.143 115.051 411.965 116.482 413.395C117.912 414.825 119.734 415.799 121.717 416.194C123.701 416.589 125.757 416.386 127.626 415.612C129.494 414.838 131.091 413.527 132.215 411.846C133.338 410.164 133.938 408.187 133.938 406.165C133.933 403.454 132.854 400.856 130.938 398.939C129.021 397.023 126.423 395.944 123.712 395.939ZM123.712 410.977C122.773 410.973 121.855 410.691 121.075 410.166C120.296 409.641 119.689 408.897 119.332 408.028C118.975 407.159 118.883 406.203 119.069 405.282C119.255 404.36 119.709 403.515 120.375 402.852C121.041 402.188 121.888 401.737 122.81 401.555C123.732 401.373 124.687 401.469 125.555 401.829C126.423 402.19 127.165 402.799 127.687 403.581C128.208 404.362 128.487 405.281 128.487 406.221C128.482 406.843 128.355 407.458 128.112 408.031C127.869 408.604 127.516 409.123 127.073 409.56C126.63 409.996 126.105 410.341 125.528 410.574C124.951 410.808 124.334 410.925 123.712 410.92V410.977Z" fill="#9AA3F4"/>
<path d="M202.549 281.198H171.834C170.243 281.202 168.679 281.609 167.289 282.381C165.898 283.154 164.726 284.267 163.883 285.616L145.33 315.41" stroke="#9AA3F4" stroke-width="1.5" stroke-miterlimit="10"/>
<path d="M62.8085 370.205H131.438C133.203 370.19 134.907 369.555 136.251 368.411C137.594 367.266 138.493 365.685 138.788 363.945L145.894 319.564C146.052 318.502 145.981 317.418 145.686 316.386C145.39 315.354 144.877 314.396 144.181 313.579C143.484 312.761 142.621 312.103 141.649 311.647C140.676 311.191 139.618 310.949 138.544 310.936H55.703C54.6292 310.949 53.5705 311.191 52.5982 311.647C51.6259 312.103 50.7625 312.761 50.0661 313.579C49.3697 314.396 48.8565 315.354 48.5611 316.386C48.2656 317.418 48.1947 318.502 48.3532 319.564L55.4587 363.87C55.7383 365.624 56.6297 367.222 57.975 368.382C59.3203 369.541 61.0326 370.187 62.8085 370.205Z" stroke="#9AA3F4" stroke-width="1.5" stroke-miterlimit="10"/>
<path d="M97.114 311.011V370.205" stroke="#9AA3F4" stroke-width="1.5" stroke-miterlimit="10"/>
<path d="M142.529 340.618H51.7178" stroke="#9AA3F4" stroke-width="1.5" stroke-miterlimit="10"/>
<path d="M124.22 311.011L118.355 370.205" stroke="#9AA3F4" stroke-width="1.5" stroke-miterlimit="10"/>
<path d="M71.3613 311.011L76.7938 370.205" stroke="#9AA3F4" stroke-width="1.5" stroke-miterlimit="10"/>
<path d="M137.228 367.517L148.337 384.04C149.029 385.06 149.429 386.25 149.494 387.481C149.558 388.711 149.286 389.937 148.706 391.024C148.125 392.111 147.259 393.019 146.2 393.65C145.141 394.281 143.93 394.611 142.698 394.604H51.7178" stroke="#9AA3F4" stroke-width="1.5" stroke-miterlimit="10"/>
<path d="M376.182 375.355H282.025V400.676H376.182V375.355Z" fill="#4A41A3"/>
<path d="M475.152 148.807H184.053C174.304 148.807 166.402 156.71 166.402 166.458V365.975C166.402 375.724 174.304 383.626 184.053 383.626H475.152C484.9 383.626 492.803 375.724 492.803 365.975V166.458C492.803 156.71 484.9 148.807 475.152 148.807Z" fill="#5851BC"/>
<path d="M471.843 157.379H186.365C180.374 157.379 175.518 162.235 175.518 168.225V350.261C175.518 356.251 180.374 361.107 186.365 361.107H471.843C477.833 361.107 482.689 356.251 482.689 350.261V168.225C482.689 162.235 477.833 157.379 471.843 157.379Z" fill="#C4C3FC"/>
<path d="M255.314 398.514H402.875C406.524 398.514 410.024 399.964 412.605 402.544C415.185 405.125 416.635 408.625 416.635 412.274V414.473H241.554V412.274C241.554 408.625 243.004 405.125 245.584 402.544C248.165 399.964 251.665 398.514 255.314 398.514Z" fill="#5851BC"/>
<g opacity="0.35">
<path opacity="0.35" d="M454.38 171.44H258.284C253.083 171.44 248.867 175.656 248.867 180.857V306.481C248.867 311.682 253.083 315.899 258.284 315.899H454.38C459.581 315.899 463.798 311.682 463.798 306.481V180.857C463.798 175.656 459.581 171.44 454.38 171.44Z" fill="white"/>
</g>
<g style="mix-blend-mode:multiply" opacity="0.25">
<g style="mix-blend-mode:multiply" opacity="0.25">
<path d="M278.661 276.988H269.299V300.485H278.661V276.988Z" fill="#FCA70C"/>
</g>
<g style="mix-blend-mode:multiply" opacity="0.25">
<path d="M299.751 256.348H290.39V300.485H299.751V256.348Z" fill="#B1AFFD"/>
</g>
<g style="mix-blend-mode:multiply" opacity="0.25">
<path d="M320.861 260.916H311.5V300.485H320.861V260.916Z" fill="#FCA70C"/>
</g>
<g style="mix-blend-mode:multiply" opacity="0.25">
<path d="M341.952 238.566H332.591V300.485H341.952V238.566Z" fill="#B1AFFD"/>
</g>
<g style="mix-blend-mode:multiply" opacity="0.15">
<g style="mix-blend-mode:multiply" opacity="0.26">
<path d="M294.695 256.348H290.39V300.485H294.695V256.348Z" fill="black"/>
</g>
</g>
<g style="mix-blend-mode:multiply" opacity="0.15">
<g style="mix-blend-mode:multiply" opacity="0.26">
<path d="M273.604 276.988H269.299V300.485H273.604V276.988Z" fill="black"/>
</g>
</g>
<g style="mix-blend-mode:multiply" opacity="0.62">
<g style="mix-blend-mode:multiply" opacity="0.26">
<path d="M336.896 238.566H332.591V300.485H336.896V238.566Z" fill="black"/>
</g>
</g>
<g style="mix-blend-mode:multiply" opacity="0.15">
<g style="mix-blend-mode:multiply" opacity="0.26">
<path d="M315.805 260.916H311.5V300.485H315.805V260.916Z" fill="black"/>
</g>
</g>
<g style="mix-blend-mode:multiply" opacity="0.25">
<path d="M346.915 306.951H263.115V217.738H264.393V305.673H346.915V306.951Z" fill="#D5DBDA"/>
</g>
<g style="mix-blend-mode:multiply" opacity="0.25">
<path d="M271.724 265.973L270.878 265.014L292.796 245.333L313.098 249.75L335.072 225.276L336.031 226.141L313.549 251.16L293.153 246.724L271.724 265.973Z" fill="#D5DBDA"/>
</g>
<g style="mix-blend-mode:multiply" opacity="0.25">
<path d="M337.741 229.749L331.557 223.809L339.546 221.667L337.741 229.749Z" fill="#D5DBDA"/>
</g>
<g style="mix-blend-mode:multiply" opacity="0.25">
<path d="M361.276 275.315H354.847V281.744H361.276V275.315Z" fill="#B1AFFD"/>
</g>
<g style="mix-blend-mode:multiply" opacity="0.25">
<path d="M361.276 286.575H354.847V293.003H361.276V286.575Z" fill="#FCA70C"/>
</g>
<g style="mix-blend-mode:multiply" opacity="0.25">
<path d="M383.419 289.357H363.043V293.004H383.419V289.357Z" fill="#EFEFEF"/>
</g>
<g style="mix-blend-mode:multiply" opacity="0.25">
<path d="M383.419 278.097H363.043V281.744H383.419V278.097Z" fill="#EFEFEF"/>
</g>
<g style="mix-blend-mode:multiply" opacity="0.25">
<path d="M399.078 275.315H392.649V281.744H399.078V275.315Z" fill="#B1AFFD"/>
</g>
<g style="mix-blend-mode:multiply" opacity="0.25">
<path d="M399.078 286.575H392.649V293.003H399.078V286.575Z" fill="#FCA70C"/>
</g>
<g style="mix-blend-mode:multiply" opacity="0.25">
<path d="M421.221 289.357H400.845V293.004H421.221V289.357Z" fill="#EFEFEF"/>
</g>
<g style="mix-blend-mode:multiply" opacity="0.25">
<path d="M421.221 278.097H400.845V281.744H421.221V278.097Z" fill="#EFEFEF"/>
</g>
<g style="mix-blend-mode:multiply" opacity="0.25">
<path d="M433.12 275.315H426.692V281.744H433.12V275.315Z" fill="#B1AFFD"/>
</g>
<g style="mix-blend-mode:multiply" opacity="0.25">
<path d="M433.12 286.575H426.692V293.003H433.12V286.575Z" fill="#FCA70C"/>
</g>
<g style="mix-blend-mode:multiply" opacity="0.25">
<path d="M448.309 289.357H434.906V293.004H448.309V289.357Z" fill="#EFEFEF"/>
</g>
<g style="mix-blend-mode:multiply" opacity="0.25">
<path d="M448.309 278.097H434.906V281.744H448.309V278.097Z" fill="#EFEFEF"/>
</g>
<g style="mix-blend-mode:multiply" opacity="0.25">
<path d="M448.309 213.885H356.05V215.558H448.309V213.885Z" fill="#EFEFEF"/>
</g>
<g style="mix-blend-mode:multiply" opacity="0.25">
<path d="M448.309 193.301H263.115V197.136H448.309V193.301Z" fill="#EFEFEF"/>
</g>
<g style="mix-blend-mode:multiply" opacity="0.25">
<path d="M448.309 219.092H355.768V220.765H448.309V219.092Z" fill="#EFEFEF"/>
</g>
<g style="mix-blend-mode:multiply" opacity="0.25">
<path d="M448.309 208.659H355.768V210.332H448.309V208.659Z" fill="#EFEFEF"/>
</g>
<g style="mix-blend-mode:multiply" opacity="0.25">
<path d="M448.309 224.317H355.768V225.99H448.309V224.317Z" fill="#EFEFEF"/>
</g>
<g style="mix-blend-mode:multiply" opacity="0.25">
<path d="M448.309 229.543H355.768V231.216H448.309V229.543Z" fill="#EFEFEF"/>
</g>
<g style="mix-blend-mode:multiply" opacity="0.25">
<path d="M448.309 234.75H355.768V236.423H448.309V234.75Z" fill="#EFEFEF"/>
</g>
<g style="mix-blend-mode:multiply" opacity="0.25">
<path d="M448.309 239.976H355.768V241.649H448.309V239.976Z" fill="#EFEFEF"/>
</g>
<g style="mix-blend-mode:multiply" opacity="0.25">
<path d="M448.309 245.182H355.768V246.855H448.309V245.182Z" fill="#EFEFEF"/>
</g>
<g style="mix-blend-mode:multiply" opacity="0.25">
<path d="M448.309 250.408H355.768V252.081H448.309V250.408Z" fill="#EFEFEF"/>
</g>
<g style="mix-blend-mode:multiply" opacity="0.25">
<path d="M448.309 255.615H367.103V257.288H448.309V255.615Z" fill="#EFEFEF"/>
</g>
<g style="mix-blend-mode:multiply" opacity="0.25">
<path d="M454.38 171.44H258.284C255.791 171.44 253.401 172.43 251.638 174.193C249.876 175.955 248.885 178.346 248.885 180.838V189.091H463.798V180.857C463.8 179.62 463.558 178.394 463.086 177.25C462.614 176.107 461.92 175.068 461.045 174.193C460.17 173.318 459.131 172.624 457.987 172.152C456.843 171.679 455.618 171.437 454.38 171.44Z" fill="#7A7AE5"/>
</g>
<g style="mix-blend-mode:multiply" opacity="0.25">
<path d="M436.109 180.594C436.113 181.134 435.956 181.663 435.659 182.114C435.362 182.564 434.937 182.917 434.439 183.126C433.942 183.335 433.393 183.392 432.863 183.289C432.333 183.186 431.846 182.928 431.463 182.547C431.08 182.167 430.818 181.681 430.711 181.152C430.605 180.623 430.658 180.074 430.863 179.574C431.069 179.075 431.418 178.648 431.867 178.348C432.316 178.048 432.843 177.887 433.383 177.887C434.103 177.887 434.793 178.172 435.304 178.679C435.815 179.186 436.104 179.875 436.109 180.594Z" fill="#CFCFFF"/>
</g>
<g style="mix-blend-mode:multiply" opacity="0.25">
<path d="M444.512 183.301C446.007 183.301 447.219 182.089 447.219 180.594C447.219 179.099 446.007 177.887 444.512 177.887C443.017 177.887 441.805 179.099 441.805 180.594C441.805 182.089 443.017 183.301 444.512 183.301Z" fill="#CFCFFF"/>
</g>
<g style="mix-blend-mode:multiply" opacity="0.25">
<path d="M455.583 183.301C457.078 183.301 458.29 182.089 458.29 180.594C458.29 179.099 457.078 177.887 455.583 177.887C454.088 177.887 452.876 179.099 452.876 180.594C452.876 182.089 454.088 183.301 455.583 183.301Z" fill="#CFCFFF"/>
</g>
</g>
<g style="mix-blend-mode:multiply" opacity="0.55">
<path d="M397.292 203.395H201.196C195.995 203.395 191.778 207.612 191.778 212.813V338.437C191.778 343.638 195.995 347.855 201.196 347.855H397.292C402.493 347.855 406.71 343.638 406.71 338.437V212.813C406.71 207.612 402.493 203.395 397.292 203.395Z" fill="#C4C3FC"/>
</g>
<path d="M401.653 197.775H205.557C200.356 197.775 196.14 201.991 196.14 207.192V332.816C196.14 338.018 200.356 342.234 205.557 342.234H401.653C406.854 342.234 411.071 338.018 411.071 332.816V207.192C411.071 201.991 406.854 197.775 401.653 197.775Z" fill="white"/>
<path d="M225.934 303.304H216.573V326.801H225.934V303.304Z" fill="#FCA70C"/>
<path d="M247.025 282.684H237.663V326.82H247.025V282.684Z" fill="#B1AFFD"/>
<path d="M268.115 287.232H258.754V326.801H268.115V287.232Z" fill="#FCA70C"/>
<path d="M289.225 264.901H279.864V326.82H289.225V264.901Z" fill="#B1AFFD"/>
<g style="mix-blend-mode:multiply" opacity="0.15">
<g style="mix-blend-mode:multiply" opacity="0.26">
<path d="M241.968 282.684H237.663V326.82H241.968V282.684Z" fill="black"/>
</g>
</g>
<g style="mix-blend-mode:multiply" opacity="0.15">
<g style="mix-blend-mode:multiply" opacity="0.26">
<path d="M220.877 303.304H216.573V326.801H220.877V303.304Z" fill="black"/>
</g>
</g>
<g style="mix-blend-mode:multiply" opacity="0.62">
<g style="mix-blend-mode:multiply" opacity="0.26">
<path d="M284.168 264.901H279.864V326.82H284.168V264.901Z" fill="black"/>
</g>
</g>
<g style="mix-blend-mode:multiply" opacity="0.15">
<g style="mix-blend-mode:multiply" opacity="0.26">
<path d="M263.059 287.232H258.754V326.801H263.059V287.232Z" fill="black"/>
</g>
</g>
<path d="M294.169 333.286H210.388V252.025H211.666V332.008H294.169V333.286Z" fill="#D5DBDA"/>
<path d="M218.997 292.308L218.133 291.349L240.051 271.668L260.352 276.086L282.345 251.611L283.304 252.457L260.822 277.496L240.426 273.059L218.997 292.308Z" fill="#D5DBDA"/>
<path d="M285.014 256.085L278.811 250.126L286.819 248.002L285.014 256.085Z" fill="#D5DBDA"/>
<path d="M308.53 301.65H302.101V308.079H308.53V301.65Z" fill="#B1AFFD"/>
<path d="M308.53 312.91H302.101V319.339H308.53V312.91Z" fill="#FCA70C"/>
<path d="M330.692 315.692H310.316V319.339H330.692V315.692Z" fill="#EFEFEF"/>
<path d="M330.692 304.413H310.316V308.06H330.692V304.413Z" fill="#EFEFEF"/>
<path d="M346.351 301.65H339.922V308.079H346.351V301.65Z" fill="#B1AFFD"/>
<path d="M346.351 312.91H339.922V319.339H346.351V312.91Z" fill="#FCA70C"/>
<path d="M368.494 315.692H348.118V319.339H368.494V315.692Z" fill="#EFEFEF"/>
<path d="M368.494 304.413H348.118V308.06H368.494V304.413Z" fill="#EFEFEF"/>
<path d="M380.393 301.65H373.964V308.079H380.393V301.65Z" fill="#B1AFFD"/>
<path d="M380.393 312.91H373.964V319.339H380.393V312.91Z" fill="#FCA70C"/>
<path d="M395.563 315.692H382.16V319.339H395.563V315.692Z" fill="#EFEFEF"/>
<path d="M395.563 304.413H382.16V308.06H395.563V304.413Z" fill="#EFEFEF"/>
<path d="M395.563 240.22H303.304V241.893H395.563V240.22Z" fill="#EFEFEF"/>
<path d="M395.582 219.618H210.388V223.452H395.582V219.618Z" fill="#EFEFEF"/>
<path d="M395.582 245.427H303.041V247.099H395.582V245.427Z" fill="#EFEFEF"/>
<path d="M395.582 234.994H303.041V236.667H395.582V234.994Z" fill="#EFEFEF"/>
<path d="M395.582 250.652H303.041V252.325H395.582V250.652Z" fill="#EFEFEF"/>
<path d="M395.582 255.859H303.041V257.532H395.582V255.859Z" fill="#EFEFEF"/>
<path d="M395.582 261.085H303.041V262.758H395.582V261.085Z" fill="#EFEFEF"/>
<path d="M395.582 266.292H303.041V267.965H395.582V266.292Z" fill="#EFEFEF"/>
<path d="M395.582 271.518H303.041V273.191H395.582V271.518Z" fill="#EFEFEF"/>
<path d="M395.582 276.725H303.041V278.398H395.582V276.725Z" fill="#EFEFEF"/>
<path d="M395.563 281.95H314.357V283.623H395.563V281.95Z" fill="#EFEFEF"/>
<path d="M401.653 197.775H205.557C203.065 197.775 200.674 198.765 198.911 200.528C197.149 202.29 196.158 204.681 196.158 207.174V215.426H411.071V207.174C411.071 205.938 410.827 204.714 410.354 203.572C409.88 202.431 409.186 201.394 408.311 200.521C407.437 199.648 406.398 198.956 405.256 198.485C404.113 198.014 402.889 197.772 401.653 197.775Z" fill="#A4A4F7"/>
<path d="M383.476 206.929C383.48 207.47 383.323 208 383.025 208.451C382.727 208.902 382.301 209.254 381.802 209.463C381.303 209.671 380.754 209.727 380.223 209.622C379.693 209.518 379.206 209.258 378.823 208.875C378.441 208.493 378.181 208.006 378.076 207.475C377.972 206.945 378.027 206.395 378.236 205.896C378.445 205.398 378.797 204.972 379.248 204.674C379.699 204.376 380.229 204.219 380.769 204.222C381.487 204.222 382.176 204.508 382.683 205.015C383.191 205.523 383.476 206.211 383.476 206.929Z" fill="#CFCFFF"/>
<path d="M394.491 206.929C394.495 207.47 394.338 208 394.04 208.451C393.742 208.902 393.316 209.254 392.817 209.463C392.319 209.671 391.769 209.727 391.239 209.622C390.708 209.518 390.221 209.258 389.838 208.875C389.456 208.493 389.196 208.006 389.092 207.475C388.987 206.945 389.042 206.395 389.251 205.896C389.46 205.398 389.812 204.972 390.263 204.674C390.714 204.376 391.244 204.219 391.784 204.222C392.501 204.227 393.186 204.514 393.693 205.021C394.2 205.527 394.486 206.213 394.491 206.929Z" fill="#CFCFFF"/>
<path d="M405.563 206.929C405.567 207.469 405.41 207.998 405.113 208.449C404.816 208.899 404.391 209.252 403.894 209.461C403.396 209.67 402.847 209.727 402.317 209.624C401.787 209.521 401.3 209.262 400.917 208.882C400.534 208.502 400.272 208.016 400.166 207.487C400.059 206.958 400.112 206.409 400.317 205.909C400.523 205.41 400.873 204.983 401.321 204.683C401.77 204.383 402.298 204.222 402.837 204.222C403.557 204.222 404.248 204.507 404.758 205.014C405.269 205.521 405.558 206.21 405.563 206.929Z" fill="#CFCFFF"/>
<g style="mix-blend-mode:multiply" opacity="0.35">
<path d="M474.193 148.976H423.853C424.204 165.268 424.486 181.59 424.699 197.944C424.869 200.443 424.556 202.951 423.778 205.331C423.12 205.331 423.402 205.519 423.176 206.704C421.146 210.031 417.18 211.835 413.308 212.7C413.26 212.879 413.26 213.067 413.308 213.245C413.073 213.412 412.906 213.657 412.837 213.937C412.768 214.216 412.802 214.511 412.932 214.768C413.157 215.313 416.052 216.046 419.981 215.614C421.478 215.392 422.943 214.988 424.342 214.411C424.923 214.125 425.461 213.758 425.94 213.32C426.449 213.271 426.949 213.15 427.425 212.963L427.575 213.114L432.086 211.234C432.086 211.234 431.598 208.377 431.203 206.91C431.136 206.665 431.035 206.431 430.902 206.215C434.663 196.001 437.604 185.504 439.699 174.823C438.891 187.981 434.06 215.012 433.759 215.933C433.258 217.041 432.472 217.997 431.481 218.704C430.491 219.41 429.331 219.842 428.12 219.956C427.049 219.956 421.804 219.749 422.368 222.155C422.518 222.719 425.225 224.035 429.173 224.223C430.688 224.258 432.203 224.113 433.684 223.791C434.705 223.464 435.656 222.947 436.485 222.268L437.087 223.076L441.748 221.817C441.748 221.817 441.748 220.576 441.748 219.091C441.672 218.048 441.322 217.043 440.733 216.178V213.452L443.384 213.151C443.384 213.151 448.703 195.951 451.222 190.105C452.367 187.741 453.322 185.29 454.08 182.774C454.723 179.762 455.094 176.698 455.189 173.62C455.625 168.007 456.652 162.457 458.253 157.059C458.333 156.711 458.487 156.384 458.704 156.101C459.19 155.687 459.814 155.473 460.452 155.499C467.219 154.879 470.321 156.025 474.55 154.71C480.189 152.98 480.716 150.443 480.998 150.33C478.843 149.427 476.529 148.966 474.193 148.976Z" fill="#5851BC"/>
</g>
<g style="mix-blend-mode:multiply" opacity="0.35">
<g style="mix-blend-mode:multiply" opacity="0.35">
<path d="M492.802 261.63V203.264C484.099 214.655 475.471 224.881 466.767 236.272C463.008 241.216 448.196 257.589 458.29 264.168C460.865 265.841 465.358 265.766 467.595 265.916C475.64 266.48 483.629 264.262 491.449 262.044L492.802 261.63Z" fill="#5851BC"/>
</g>
</g>
<g style="mix-blend-mode:multiply" opacity="0.35">
<path d="M492.803 274.187L487.953 274.563L487.859 274.281L484.099 274.582L482.971 271.367C482.59 270.434 481.927 269.643 481.074 269.103C480.222 268.564 479.223 268.304 478.216 268.36C477.788 268.358 477.366 268.462 476.988 268.663C476.61 268.863 476.288 269.154 476.05 269.51C475.812 269.865 475.665 270.274 475.623 270.7C475.581 271.126 475.645 271.555 475.81 271.95C475.998 272.514 476.561 274.074 476.937 275.127L472.971 275.447V275.71L464.794 276.349C463.516 276.349 461.599 278.022 462.012 279.187V279.356C462.002 279.456 462.002 279.557 462.012 279.657L469.08 299.62L468.892 383.626H477.107L492.633 323.286L492.803 274.187ZM480.039 273.567C479.474 273.594 478.914 273.447 478.436 273.144C477.959 272.841 477.586 272.398 477.37 271.875C477.277 271.652 477.24 271.41 477.264 271.17C477.287 270.929 477.369 270.699 477.503 270.498C477.637 270.297 477.819 270.132 478.031 270.018C478.244 269.904 478.482 269.845 478.723 269.845C479.288 269.82 479.846 269.969 480.324 270.272C480.801 270.574 481.174 271.016 481.392 271.537C481.485 271.759 481.522 272.002 481.498 272.242C481.475 272.482 481.393 272.713 481.259 272.914C481.125 273.115 480.944 273.279 480.731 273.393C480.518 273.507 480.28 273.567 480.039 273.567Z" fill="#5851BC"/>
</g>
<g style="mix-blend-mode:multiply" opacity="0.35">
<path d="M186.91 239.562C184.992 242.09 183.365 244.827 182.06 247.72C181.14 249.614 179.513 251.072 177.53 251.78C173.94 253.435 170.011 254.995 166.402 256.461V265.991C173.921 261.461 180.726 257.251 180.838 257.213C186.59 259.393 191.403 254.619 192.944 251.179C193.621 249.638 192.587 248.998 192.549 248.265C192.549 247.889 193.019 245.652 192.944 245.352C192.493 243.34 187.079 245.107 187.53 244.149C187.929 242.822 188.715 241.644 189.786 240.765C192.436 238.885 194.467 237.006 194.448 236.197C194.448 234.975 187.549 238.885 186.91 239.562Z" fill="#5851BC"/>
</g>
<path d="M591.94 288.022H491.167C483.951 288.022 478.102 293.871 478.102 301.086V421.71C478.102 428.925 483.951 434.774 491.167 434.774H591.94C599.155 434.774 605.005 428.925 605.005 421.71V301.086C605.005 293.871 599.155 288.022 591.94 288.022Z" fill="#A2A7F4"/>
<path d="M593.82 303.38H493.159C491.322 303.38 489.832 304.869 489.832 306.707V330.204C489.832 332.041 491.322 333.531 493.159 333.531H593.82C595.658 333.531 597.148 332.041 597.148 330.204V306.707C597.148 304.869 595.658 303.38 593.82 303.38Z" fill="#9090F4"/>
<path d="M514.1 344.208H493.159C491.322 344.208 489.832 345.697 489.832 347.535V360.017C489.832 361.854 491.322 363.344 493.159 363.344H514.1C515.937 363.344 517.427 361.854 517.427 360.017V347.535C517.427 345.697 515.937 344.208 514.1 344.208Z" fill="#9090F4"/>
<path d="M553.97 344.208H533.03C531.192 344.208 529.702 345.697 529.702 347.535V360.017C529.702 361.854 531.192 363.344 533.03 363.344H553.97C555.808 363.344 557.297 361.854 557.297 360.017V347.535C557.297 345.697 555.808 344.208 553.97 344.208Z" fill="#9090F4"/>
<path d="M593.84 344.208H572.899C571.062 344.208 569.572 345.697 569.572 347.535V360.017C569.572 361.854 571.062 363.344 572.899 363.344H593.84C595.677 363.344 597.167 361.854 597.167 360.017V347.535C597.167 345.697 595.677 344.208 593.84 344.208Z" fill="#9090F4"/>
<path d="M514.1 374.961H493.159C491.322 374.961 489.832 376.45 489.832 378.288V390.769C489.832 392.607 491.322 394.097 493.159 394.097H514.1C515.937 394.097 517.427 392.607 517.427 390.769V378.288C517.427 376.45 515.937 374.961 514.1 374.961Z" fill="#9090F4"/>
<path d="M553.97 374.961H533.03C531.192 374.961 529.702 376.45 529.702 378.288V390.769C529.702 392.607 531.192 394.097 533.03 394.097H553.97C555.808 394.097 557.297 392.607 557.297 390.769V378.288C557.297 376.45 555.808 374.961 553.97 374.961Z" fill="#9090F4"/>
<path d="M514.1 405.732H493.159C491.322 405.732 489.832 407.222 489.832 409.06V421.541C489.832 423.379 491.322 424.868 493.159 424.868H514.1C515.937 424.868 517.427 423.379 517.427 421.541V409.06C517.427 407.222 515.937 405.732 514.1 405.732Z" fill="#9090F4"/>
<path d="M553.97 405.732H533.03C531.192 405.732 529.702 407.222 529.702 409.06V421.541C529.702 423.379 531.192 424.868 533.03 424.868H553.97C555.808 424.868 557.297 423.379 557.297 421.541V409.06C557.297 407.222 555.808 405.732 553.97 405.732Z" fill="#9090F4"/>
<path d="M593.84 374.961H572.899C571.062 374.961 569.572 376.45 569.572 378.288V421.522C569.572 423.36 571.062 424.849 572.899 424.849H593.84C595.677 424.849 597.167 423.36 597.167 421.522V378.288C597.167 376.45 595.677 374.961 593.84 374.961Z" fill="#9090F4"/>
<g opacity="0.45">
<path opacity="0.45" d="M487.896 304.751C487.896 303.869 488.247 303.023 488.871 302.399C489.495 301.775 490.341 301.424 491.224 301.424H591.885C592.767 301.424 593.613 301.775 594.237 302.399C594.861 303.023 595.212 303.869 595.212 304.751V328.23C595.212 329.112 594.861 329.958 594.237 330.582C593.613 331.206 592.767 331.557 591.885 331.557H491.224" fill="#E2DEFF"/>
<path opacity="0.45" d="M512.164 342.253H491.224C489.386 342.253 487.896 343.742 487.896 345.58V358.061C487.896 359.899 489.386 361.389 491.224 361.389H512.164C514.002 361.389 515.491 359.899 515.491 358.061V345.58C515.491 343.742 514.002 342.253 512.164 342.253Z" fill="#E2DEFF"/>
<path opacity="0.45" d="M552.015 342.253H531.075C529.237 342.253 527.748 343.742 527.748 345.58V358.061C527.748 359.899 529.237 361.389 531.075 361.389H552.015C553.853 361.389 555.342 359.899 555.342 358.061V345.58C555.342 343.742 553.853 342.253 552.015 342.253Z" fill="#E2DEFF"/>
<path opacity="0.45" d="M591.885 342.253H570.944C569.107 342.253 567.617 343.742 567.617 345.58V358.061C567.617 359.899 569.107 361.389 570.944 361.389H591.885C593.722 361.389 595.212 359.899 595.212 358.061V345.58C595.212 343.742 593.722 342.253 591.885 342.253Z" fill="#E2DEFF"/>
<path opacity="0.45" d="M512.164 373.005H491.224C489.386 373.005 487.896 374.495 487.896 376.333V388.814C487.896 390.652 489.386 392.141 491.224 392.141H512.164C514.002 392.141 515.491 390.652 515.491 388.814V376.333C515.491 374.495 514.002 373.005 512.164 373.005Z" fill="#E2DEFF"/>
<path opacity="0.45" d="M552.015 373.005H531.075C529.237 373.005 527.748 374.495 527.748 376.333V388.814C527.748 390.652 529.237 392.141 531.075 392.141H552.015C553.853 392.141 555.342 390.652 555.342 388.814V376.333C555.342 374.495 553.853 373.005 552.015 373.005Z" fill="#E2DEFF"/>
<path opacity="0.45" d="M512.164 403.777H491.224C489.386 403.777 487.896 405.266 487.896 407.104V419.586C487.896 421.423 489.386 422.913 491.224 422.913H512.164C514.002 422.913 515.491 421.423 515.491 419.586V407.104C515.491 405.266 514.002 403.777 512.164 403.777Z" fill="#E2DEFF"/>
<path opacity="0.45" d="M552.015 403.777H531.075C529.237 403.777 527.748 405.266 527.748 407.104V419.586C527.748 421.423 529.237 422.913 531.075 422.913H552.015C553.853 422.913 555.342 421.423 555.342 419.586V407.104C555.342 405.266 553.853 403.777 552.015 403.777Z" fill="#E2DEFF"/>
</g>
<path d="M591.884 373.006H570.944C569.106 373.006 567.617 374.495 567.617 376.333V419.567C567.617 421.405 569.106 422.894 570.944 422.894H591.884C593.722 422.894 595.212 421.405 595.212 419.567V376.333C595.212 374.495 593.722 373.006 591.884 373.006Z" fill="#FCA70C"/>
<path d="M569.572 421.522V378.288C569.572 377.404 569.922 376.555 570.545 375.928C571.169 375.301 572.015 374.947 572.899 374.942H593.839C594.232 374.95 594.62 375.026 594.986 375.167C594.752 374.531 594.33 373.982 593.776 373.592C593.222 373.202 592.562 372.991 591.884 372.987H570.944C570.06 372.992 569.214 373.346 568.59 373.973C567.967 374.6 567.617 375.449 567.617 376.333V419.567C567.613 420.246 567.819 420.91 568.206 421.468C568.592 422.026 569.141 422.452 569.778 422.688C569.642 422.314 569.572 421.92 569.572 421.522Z" fill="#F9C110"/>
<g style="mix-blend-mode:multiply" opacity="0.35">
<path d="M478.103 322.628L481.505 331.557H495.735C495.735 331.557 494.738 370.243 494.682 377.498C494.626 384.754 500.641 434.775 500.641 434.775H508.874L508.028 371.709L519.702 339.339C519.702 339.339 528.499 382.574 532.127 389.905C535.755 397.236 555.342 434.775 555.342 434.775H562.861L543.443 351.821L535.116 323.004L493.122 303.38L478.084 304.865" fill="#5851BC"/>
</g>
<path d="M193.959 354.753L187.342 423.458H252.476L246.179 354.64L193.959 354.753Z" fill="#FCA70C"/>
<path d="M205.332 361.051C205.384 360.457 205.668 359.908 206.121 359.521C206.575 359.134 207.162 358.941 207.756 358.983C208.35 358.941 208.937 359.131 209.393 359.513C209.849 359.895 210.138 360.44 210.2 361.032C210.147 361.629 209.861 362.181 209.404 362.568C208.946 362.956 208.354 363.146 207.756 363.1C207.165 363.141 206.58 362.951 206.127 362.568C205.674 362.185 205.389 361.641 205.332 361.051ZM207.756 359.754C207.369 359.716 206.982 359.83 206.677 360.072C206.372 360.314 206.173 360.665 206.121 361.051C206.177 361.435 206.382 361.783 206.691 362.018C207 362.254 207.39 362.358 207.775 362.31C207.969 362.357 208.171 362.36 208.366 362.318C208.561 362.276 208.743 362.19 208.9 362.067C209.057 361.944 209.184 361.786 209.271 361.607C209.358 361.428 209.403 361.231 209.403 361.032C209.403 360.832 209.358 360.636 209.271 360.456C209.184 360.277 209.057 360.12 208.9 359.997C208.743 359.874 208.561 359.788 208.366 359.746C208.171 359.704 207.969 359.706 207.775 359.754H207.756Z" fill="#5851BC"/>
<path d="M229.599 360.919C229.602 360.669 229.656 360.422 229.756 360.193C229.856 359.964 230.001 359.757 230.182 359.584C230.43 359.343 230.725 359.154 231.047 359.028C231.37 358.902 231.715 358.842 232.061 358.851C232.656 358.804 233.245 358.993 233.703 359.376C234.16 359.759 234.448 360.307 234.505 360.9C234.504 361.187 234.438 361.47 234.311 361.728C234.184 361.985 234 362.21 233.772 362.385C233.294 362.771 232.695 362.977 232.08 362.968C231.481 363.021 230.884 362.835 230.42 362.452C229.956 362.068 229.661 361.518 229.599 360.919ZM232.043 359.641C231.564 359.633 231.1 359.807 230.746 360.13C230.636 360.23 230.548 360.352 230.487 360.488C230.425 360.624 230.392 360.77 230.388 360.919C230.449 361.302 230.655 361.646 230.963 361.881C231.271 362.115 231.658 362.222 232.043 362.179C232.471 362.186 232.889 362.046 233.227 361.784C233.366 361.682 233.478 361.549 233.557 361.395C233.635 361.242 233.677 361.072 233.678 360.9C233.622 360.516 233.417 360.168 233.108 359.933C232.799 359.697 232.41 359.593 232.024 359.641H232.043Z" fill="#5851BC"/>
<path d="M219.185 376.051H219.937C221.831 376.109 223.715 375.758 225.46 375.022C227.205 374.286 228.771 373.181 230.05 371.784C232.359 368.648 233.375 364.745 232.889 360.881C232.861 360.674 232.752 360.487 232.586 360.361C232.421 360.234 232.212 360.178 232.005 360.204C231.799 360.232 231.612 360.341 231.485 360.507C231.358 360.672 231.302 360.881 231.329 361.088C231.74 364.514 230.848 367.97 228.828 370.769C227.699 372.007 226.314 372.985 224.769 373.634C223.224 374.284 221.556 374.589 219.881 374.528C218.305 374.706 216.709 374.527 215.212 374.003C213.714 373.479 212.355 372.624 211.234 371.502C207.756 367.629 208.602 361.276 208.621 361.201C208.639 361 208.578 360.8 208.453 360.642C208.328 360.484 208.147 360.38 207.948 360.351C207.748 360.322 207.545 360.371 207.38 360.487C207.215 360.603 207.101 360.777 207.061 360.975C207.061 361.276 206.083 368.118 210.05 372.554C211.231 373.76 212.659 374.697 214.236 375.3C215.812 375.904 217.501 376.16 219.185 376.051Z" fill="#5851BC"/>
<path d="M129.916 199.955C132.435 204.298 130.254 210.256 132.811 214.599C133.826 216.328 135.555 217.7 136.044 219.655C136.245 220.48 136.204 221.345 135.926 222.148C135.648 222.95 135.145 223.655 134.476 224.179C133.808 224.702 133.003 225.022 132.157 225.1C131.312 225.178 130.462 225.01 129.709 224.618C129.399 224.425 129.072 224.262 128.732 224.129C127.472 223.772 126.344 224.881 125.254 225.614C124.606 226.09 123.856 226.41 123.064 226.551C122.272 226.691 121.459 226.647 120.686 226.422C119.755 225.995 118.932 225.362 118.281 224.571C117.63 223.78 117.167 222.851 116.927 221.854C115.047 216.384 116.4 210.407 118.073 204.937C118.919 202.192 120.16 199.128 122.867 198.132" fill="#5045AF"/>
<path d="M188.47 246.254C188.47 246.855 189.447 247.382 188.827 248.66C187.455 251.498 183.188 255.427 178.094 253.623C177.868 253.623 149.897 269.864 147.754 269.864C145.612 269.864 130.931 255.991 126.137 238.735C124.991 234.637 125.423 229.825 129.276 227.738C130.424 228.133 131.482 228.752 132.388 229.559C133.295 230.365 134.033 231.344 134.559 232.438C137.735 238.453 147.247 258.322 149.352 259.074C151.984 257.307 164.785 253.435 175.161 249.111C176.884 248.547 178.324 247.342 179.184 245.746C180.343 243.344 181.788 241.091 183.489 239.036C184.034 238.453 190.18 235.276 190.18 236.254C190.18 236.874 188.301 238.528 186.026 240.013C185.09 240.712 184.394 241.684 184.034 242.795C183.639 243.585 188.432 242.137 188.827 243.791C188.902 244.111 188.451 245.953 188.47 246.254Z" fill="#FFB9B0"/>
<path d="M128.149 227.324C129.925 227.734 131.591 228.524 133.032 229.641C134.473 230.757 135.655 232.173 136.495 233.791C136.923 234.641 137.306 235.513 137.641 236.404C139.127 240.163 141.175 243.622 142.66 247.4C140.666 248.817 138.449 249.891 136.1 250.577C134.145 251.309 132.051 251.592 129.972 251.404C129.617 251.387 129.268 251.311 128.938 251.179C128.524 250.946 128.159 250.632 127.867 250.257C127.228 249.524 126.607 248.772 125.987 248.021C125.432 247.398 125.01 246.669 124.746 245.878C124.549 244.763 124.646 243.616 125.028 242.55" fill="#7762EF"/>
<g style="mix-blend-mode:multiply" opacity="0.35">
<g style="mix-blend-mode:multiply" opacity="0.35">
<path d="M131.814 237.663C131.689 237.486 131.521 237.344 131.325 237.25C131.133 237.202 130.93 237.221 130.749 237.303C130.568 237.385 130.421 237.525 130.329 237.701C130.149 238.061 130.077 238.466 130.122 238.866C130.133 240.404 130.374 241.931 130.837 243.397L130.348 251.404C132.296 251.536 134.25 251.254 136.081 250.577C136.927 250.258 137.867 249.919 138.807 249.544C137.867 245.032 134.803 241.235 131.814 237.663Z" fill="#7762EF"/>
</g>
</g>
<path d="M119.427 219.373C119.427 219.373 119.314 224.392 120.085 224.712C121.129 225.143 122.212 225.476 123.318 225.708V236.065L109.52 233.979L100.028 228.697C100.028 228.697 109.896 225.426 109.99 224.449C110.084 223.471 109.445 217.926 109.445 217.926" fill="#FFB9B0"/>
<path d="M98.2044 369.209C94.4449 387.123 96.2307 411.71 95.3848 425.188C95.5727 425.188 100.516 425.865 100.516 425.865C100.516 425.865 112.19 369.04 114.314 358.193C114.458 357.494 114.546 356.783 114.577 356.069C115.085 347.892 107.716 347.479 103.562 354.19C102.849 355.359 102.221 356.578 101.682 357.836C101.456 358.381 101.231 358.908 101.005 359.491C100.275 361.334 99.6475 363.217 99.1255 365.13V365.337C98.9563 365.919 98.8247 366.502 98.6743 367.085V367.216C98.4676 367.968 98.336 368.589 98.2044 369.209Z" fill="#FFB9B0"/>
<path d="M120.31 304.94C120.16 306.425 119.37 313.474 118.43 321.857C117.622 328.85 116.739 336.726 116.043 342.967C115.517 347.666 115.141 351.388 114.99 353.155C114.917 354.166 114.779 355.17 114.577 356.163C112.697 364.34 107.058 364.81 103.712 362.911C103.252 362.659 102.818 362.363 102.415 362.028C101.669 361.406 101.152 360.552 100.949 359.603C100.723 357.93 100.516 355.637 100.309 352.911V352.779C99.8959 347.46 99.5387 340.636 99.2192 333.982C98.8432 325.805 98.6177 317.929 98.5613 313.493C98.5613 313.229 98.5613 312.985 98.5613 312.759C98.5613 299.131 111.024 290.39 118.806 294.62L119.069 294.751L119.37 294.939C120.254 295.522 120.554 297.571 120.573 299.902C120.554 301.537 120.442 303.398 120.31 304.94Z" fill="#FFB9B0"/>
<path d="M101.268 356.37L100.31 352.798C100.372 356.983 99.9751 361.163 99.1253 365.261V365.468C98.9937 366.032 98.8433 366.633 98.6742 367.216V367.348C98.4724 367.958 98.3338 368.588 98.2606 369.227C98.2606 370.844 101.701 363.588 102.49 361.972L102.64 361.633L101.701 357.874L101.268 356.37Z" fill="#FFB9B0"/>
<path d="M128.243 372.629C127.886 391.427 133.675 413.42 135.217 427.048C135.405 427.048 139.935 426.428 139.935 426.428C139.935 426.428 140.8 369.002 140.856 357.648C140.869 356.926 140.832 356.203 140.743 355.486C139.822 347.215 133.111 348.625 130.517 356.388C130.07 357.737 129.705 359.112 129.427 360.505L129.089 362.385C128.788 364.315 128.562 366.364 128.412 368.532V368.738C128.412 369.359 128.412 369.979 128.299 370.618V370.769C128.274 371.358 128.255 371.978 128.243 372.629Z" fill="#FFB9B0"/>
<path d="M132.134 364.979C131.67 364.847 131.227 364.651 130.818 364.397C130.02 363.95 129.412 363.229 129.107 362.366C128.619 360.75 128.017 358.494 127.378 355.844V355.731C126.1 350.562 124.596 343.851 123.205 337.309C121.476 329.283 119.915 321.501 119.126 317.083C119.126 316.839 118.374 313.624 118.318 313.324C115.911 299.62 126.607 290.767 134.371 293.323L134.671 293.417C136.232 294.037 136.664 299.545 137.002 303.248C137.341 306.951 140.01 345.411 140.762 352.366C140.859 353.403 140.903 354.445 140.893 355.487C140.574 364.115 135.555 366.013 132.134 364.979Z" fill="#FFB9B0"/>
<path d="M128.825 359.039L127.359 355.731C128.144 359.913 128.496 364.165 128.412 368.419V368.626C128.412 369.227 128.412 369.866 128.299 370.506V370.656C128.251 371.282 128.251 371.91 128.299 372.536C128.562 374.152 130.442 366.145 130.874 364.265C130.874 364.039 130.874 363.908 130.874 363.908L129.408 360.411L128.825 359.039Z" fill="#FFB9B0"/>
<path d="M105.009 278.623C105.009 278.623 94.9711 291.405 95.9862 304.225C96.4185 309.564 97.0952 314.282 97.6967 319.658C97.7907 320.429 98.9938 331.707 98.6554 331.726C98.6554 331.726 119.333 338.117 139.371 329.733C139.371 328.361 140.969 302.101 130.16 277.1C121.824 278.214 113.418 278.723 105.009 278.623Z" fill="#5146AF"/>
<path d="M136.495 249.149C136.495 252.795 134.465 255.032 131.683 258.115C130.868 262.783 130.36 267.498 130.16 272.232C130.01 275.052 131.213 276.838 130.16 277.063C126.137 280.559 111.663 283.398 105.028 278.623C105.723 272.721 103.148 259.732 101.268 253.134C101.005 252.119 100.761 251.254 100.535 250.596C98.8621 245.577 95.8733 229.487 98.0914 228.791L99.9712 228.227C103.449 227.174 108.58 225.37 108.58 225.37C108.58 225.37 111.588 234.28 119.408 235.351C123.675 233.603 123.299 228.19 123.167 225.708C124.558 226.103 125.179 226.479 129.502 227.757C130.724 229.505 129.671 233.171 131.626 238.603C132.265 239.957 136.589 244.694 136.495 249.149Z" fill="#7762EF"/>
<path d="M129.408 198.94C129.408 198.94 130.198 208.621 128.544 213.697C127.647 215.749 126.195 217.51 124.352 218.782C122.509 220.054 120.348 220.786 118.111 220.896C106.569 220.896 104.501 205.219 104.558 204.448C104.614 203.677 121.588 197.117 121.588 197.117L129.408 198.94Z" fill="#FFB9B0"/>
<path d="M151.401 432.5C147.285 433.252 142.886 432.086 141.1 432.406C139.596 432.65 135.78 433.628 134.352 432.406C132.923 431.184 133.149 426.579 134.803 425.959C135.145 426.08 135.497 426.168 135.856 426.222C137.488 426.441 139.149 426.307 140.724 425.827C142.866 426.988 145.155 427.855 147.529 428.402C149.084 428.697 150.602 429.157 152.059 429.774C153.601 430.47 153.713 432.086 151.401 432.5Z" fill="#5045AF"/>
<path d="M107.02 434.323C102.904 433.628 100.291 431.353 98.5051 431.034C97.0013 430.771 93.2606 430.038 92.8659 428.496C92.5839 427.368 93.7118 422.613 95.4599 422.594C95.7505 422.818 96.0585 423.02 96.381 423.195C97.8396 423.966 99.4512 424.402 101.099 424.474C102.708 426.301 104.569 427.89 106.626 429.192C107.978 429.991 109.239 430.936 110.385 432.011C111.626 433.196 109.351 434.699 107.02 434.323Z" fill="#5045AF"/>
<path d="M46.9996 242.25L50.7591 237.738L73.8425 258.416C73.8425 258.416 85.1211 243.378 88.2039 238.735C91.6062 233.584 94.689 229.185 99.6704 228.321C100.817 229.035 99.2756 247.513 98.6741 247.964C91.719 253.171 78.166 269.976 73.8613 270.86C68.8988 271.818 46.9996 242.25 46.9996 242.25Z" fill="#FFB9B0"/>
<path d="M101.4 227.456C101.4 227.456 96.6816 227.456 94.6514 229.186C92.6213 230.915 82.9406 246.254 82.9406 246.254C82.939 247.274 83.1662 248.281 83.6054 249.202C84.0446 250.122 84.6845 250.933 85.4782 251.574C87.4804 253.204 89.8934 254.252 92.4521 254.6C92.4521 254.6 97.3207 249.769 99.9711 247.57C101.682 246.197 101.851 249.581 101.851 249.581L110.423 241.216L101.4 227.456Z" fill="#7762EF"/>
<path d="M98.5426 227.644C98.2795 227.513 98.0351 227.362 97.7907 227.212C96.4211 226.57 95.3225 225.465 94.6891 224.092C93.7509 221.673 93.7509 218.991 94.6891 216.573C95.6052 215.255 96.6301 214.016 97.7531 212.869C98.9945 210.998 99.649 208.799 99.6329 206.553C99.6033 204.321 99.7542 202.089 100.084 199.88C100.874 196.121 101.964 192.606 104.802 190.218C109.408 186.459 118.637 184.09 123.6 188.339C124.521 189.109 124.69 189.748 125.931 189.861C127.414 189.926 128.86 190.352 130.141 191.102C131.777 192.042 133.788 193.376 133.544 195.538C133.107 197.4 131.986 199.031 130.404 200.106C129.86 200.389 129.251 200.525 128.638 200.501C126.758 200.501 125.066 199.279 123.149 199.486C122.68 199.539 122.226 199.684 121.813 199.913C121.4 200.142 121.036 200.451 120.743 200.82C120.047 201.666 120.141 202.85 119.333 203.659C118.036 204.937 116.024 204.824 114.502 205.651C114.237 205.769 114.009 205.958 113.844 206.196C113.713 206.451 113.654 206.737 113.675 207.023V209.448C112.904 209.11 112.829 208.039 112.208 207.569C111.884 207.331 111.487 207.215 111.085 207.239C110.684 207.263 110.303 207.426 110.009 207.7C109.435 208.269 109.059 209.007 108.938 209.805C108.849 210.791 108.997 211.784 109.37 212.7C109.878 214.354 111.25 215.839 112.415 214.749C113.242 215.971 112.415 218.001 112.415 219.373C112.415 220.464 112.415 222.625 113.43 223.34C114.445 224.054 115.855 223.49 115.912 225.219C115.819 225.993 115.454 226.709 114.883 227.24C114.311 227.77 113.57 228.08 112.791 228.114C111.231 228.158 109.678 227.89 108.223 227.325C106.768 226.747 105.161 226.668 103.656 227.099C102.846 227.569 101.989 227.954 101.099 228.246C100.203 228.346 99.2999 228.134 98.5426 227.644Z" fill="#5045AF"/>
<path d="M56.6054 242.983C56.6054 242.983 51.1917 238.735 50.7593 237.438C50.327 236.141 50.3082 234.975 49.857 233.81C49.5176 232.961 49.0094 232.19 48.3631 231.544C47.7169 230.898 46.9461 230.39 46.0975 230.05C44.7441 229.486 45.402 229.035 43.9546 229.317C41.7553 229.749 40.7026 231.892 39.8379 233.584C36.0784 240.765 46.3419 242.118 46.699 242.137C47.4509 242.137 51.2668 246.498 51.2668 246.498" fill="#FFB9B0"/>
<path d="M39.4808 239.524L43.2403 242.006C43.3568 242.081 43.4873 242.132 43.624 242.155C43.7606 242.179 43.9007 242.175 44.0357 242.143C44.1708 242.112 44.2981 242.053 44.4101 241.972C44.5221 241.89 44.6165 241.786 44.6877 241.667L52.8458 228.002L47.996 225.276L39.2364 238.096C39.0817 238.318 39.0206 238.593 39.0663 238.86C39.112 239.127 39.2609 239.366 39.4808 239.524Z" fill="#8484EF"/>
<path d="M26.2096 210.538L27.4878 211.403L32.6571 203.884L31.3789 203C30.394 202.434 29.2263 202.276 28.1263 202.561C27.0264 202.846 26.0818 203.55 25.4953 204.523C24.793 205.416 24.4737 206.551 24.6077 207.678C24.7416 208.806 25.3178 209.835 26.2096 210.538Z" fill="#C4C4F7"/>
<path d="M21.4915 219.693L45.2704 223.302L50.6841 215.388L38.6912 194.598L21.4915 219.693Z" fill="#C4C4F7"/>
<path d="M22.9954 220.012L45.2705 223.302L47.4322 220.144L28.691 211.723L22.9954 220.012Z" fill="#BBBBF2"/>
<path d="M55.0451 229.054C55.7343 229.453 56.5529 229.564 57.3235 229.364C58.0941 229.163 58.7546 228.667 59.1618 227.983L60.1205 226.573C60.6056 225.95 60.8262 225.161 60.7348 224.377C60.6433 223.592 60.2471 222.876 59.6317 222.381C58.9449 221.98 58.1279 221.866 57.3576 222.063C56.5873 222.26 55.9254 222.753 55.5151 223.434L54.5376 224.843C54.0488 225.47 53.8278 226.264 53.9229 227.053C54.018 227.842 54.4214 228.562 55.0451 229.054Z" fill="#C4C4F7"/>
<path d="M55.5152 223.433L54.5566 224.843C54.3111 225.151 54.129 225.505 54.0206 225.884C53.9123 226.262 53.8799 226.659 53.9253 227.05C53.9707 227.441 54.0931 227.82 54.2853 228.164C54.4775 228.508 54.7358 228.81 55.0453 229.054C55.7344 229.453 56.553 229.564 57.3236 229.363C58.0942 229.163 58.7547 228.667 59.162 227.982L60.1206 226.573C60.1937 226.472 60.2566 226.365 60.3086 226.253C60.1146 226.576 59.8565 226.856 59.5502 227.076C59.2439 227.296 58.8959 227.45 58.5275 227.531C58.1592 227.611 57.7784 227.615 57.4085 227.542C57.0386 227.47 56.6874 227.322 56.3765 227.109C56.0657 226.896 55.8018 226.621 55.601 226.302C55.4002 225.983 55.2668 225.627 55.209 225.254C55.1512 224.882 55.1703 224.501 55.2649 224.136C55.3596 223.772 55.528 223.43 55.7596 223.133C55.6726 223.228 55.591 223.329 55.5152 223.433Z" fill="#BBBBF2"/>
<path d="M20.6832 220.464C21.0842 220.691 21.5547 220.763 22.0052 220.666C22.4557 220.569 22.8549 220.309 23.1269 219.937L39.4807 196.064C39.6234 195.883 39.7289 195.676 39.791 195.454C39.8532 195.232 39.8708 194.999 39.8428 194.771C39.8149 194.542 39.7419 194.321 39.6281 194.12C39.5144 193.92 39.3621 193.743 39.18 193.602C38.778 193.368 38.2999 193.302 37.8495 193.418C37.399 193.534 37.0125 193.823 36.7739 194.222L20.42 218.058C20.1494 218.417 20.026 218.866 20.0749 219.313C20.1238 219.76 20.3414 220.171 20.6832 220.464Z" fill="#A4A4F7"/>
<path d="M39.4809 194.053L25.9091 213.847C25.7909 214.047 25.6343 214.222 25.4483 214.362C25.2624 214.501 25.0507 214.603 24.8254 214.66C24.6001 214.718 24.3657 214.731 24.1355 214.698C23.9054 214.664 23.684 214.586 23.4842 214.467C23.3141 214.35 23.1728 214.196 23.0707 214.016L20.4202 218.058C20.1347 218.423 20.0043 218.886 20.057 219.347C20.1098 219.807 20.3415 220.229 20.7022 220.52C21.1077 220.736 21.5784 220.796 22.0252 220.689C22.4719 220.581 22.8639 220.314 23.127 219.937L39.4809 196.064C39.6714 195.764 39.7726 195.415 39.7726 195.059C39.7726 194.703 39.6714 194.354 39.4809 194.053Z" fill="#8484EF"/>
<path d="M47.3568 227.456L48.8982 228.509C50.1253 229.221 51.5829 229.423 52.9575 229.072C54.3321 228.72 55.5137 227.843 56.2481 226.629L57.7707 224.392C58.2083 223.841 58.5326 223.209 58.7251 222.532C58.9176 221.856 58.9744 221.148 58.8923 220.449C58.8102 219.75 58.5908 219.075 58.2467 218.461C57.9026 217.847 57.4406 217.308 56.8872 216.873L55.3458 215.82C54.1216 215.109 52.6669 214.907 51.2954 215.259C49.9239 215.611 48.7456 216.488 48.0148 217.7L46.4734 219.937C45.5945 221.052 45.1939 222.47 45.3595 223.879C45.5251 225.289 46.2435 226.576 47.3568 227.456Z" fill="#A4A4F7"/>
<path d="M46.5675 219.824L44.2742 223.17C44.132 223.346 44.0264 223.548 43.9635 223.765C43.9006 223.981 43.8817 224.209 43.908 224.433C43.9343 224.657 44.0052 224.874 44.1165 225.07C44.2278 225.267 44.3773 225.439 44.5562 225.577L51.7181 230.464C52.1058 230.685 52.5645 230.746 52.9965 230.634C53.4285 230.521 53.7994 230.244 54.0302 229.862L56.3987 226.479C56.1714 226.865 55.8003 227.145 55.3669 227.257C54.9335 227.37 54.4731 227.306 54.0866 227.08L46.9247 222.212C46.7428 222.08 46.5891 221.913 46.4725 221.721C46.3559 221.529 46.2787 221.315 46.2454 221.093C46.2122 220.871 46.2235 220.644 46.2788 220.426C46.3341 220.209 46.4323 220.004 46.5675 219.824Z" fill="#8484EF"/>
<path d="M40.2702 236.084C40.1059 235.104 40.1376 234.101 40.3634 233.133C40.5893 232.165 41.0048 231.251 41.586 230.445C41.9913 229.933 42.4377 229.456 42.9206 229.016C43.1374 228.767 43.4162 228.579 43.7289 228.471C44.3337 228.399 44.9449 228.538 45.4583 228.866C46.0773 229.174 46.5789 229.676 46.8869 230.295C47.0167 230.734 46.9813 231.206 46.7875 231.622C46.5936 232.037 46.2546 232.367 45.8342 232.55C45.8342 232.55 45.6651 232.663 45.6463 232.738C45.6394 232.899 45.6857 233.058 45.7779 233.19C46.1494 233.745 46.3398 234.401 46.323 235.069C46.3076 235.218 46.2613 235.362 46.1871 235.491C46.1128 235.621 46.0123 235.734 45.8919 235.822C45.7716 235.911 45.634 235.973 45.4881 236.005C45.3422 236.037 45.1912 236.039 45.0448 236.009C44.7628 236.009 44.4056 235.859 44.3116 236.009C44.2177 236.16 44.3116 236.16 44.3116 236.254C44.354 236.529 44.3373 236.811 44.2628 237.08C44.1883 237.349 44.0576 237.599 43.8793 237.814C43.7978 237.924 43.6764 237.998 43.5409 238.021C43.4235 238.048 43.3012 238.048 43.1838 238.021C42.7368 237.884 42.3077 237.695 41.9056 237.457" fill="#FFB9B0"/>
<path d="M50.7593 237.739C50.5588 236.777 50.4144 235.804 50.327 234.825C50.2939 233.728 49.9899 232.656 49.4422 231.705C48.8945 230.754 48.12 229.953 47.1878 229.374C47.0417 229.265 46.8619 229.212 46.6802 229.223C46.5686 229.251 46.4684 229.313 46.3942 229.401C46.3199 229.488 46.2753 229.597 46.2667 229.712C46.2421 229.942 46.2743 230.174 46.3607 230.389C46.5862 231.066 47.5637 232.269 47.263 233.077C46.7518 234.132 46.4821 235.288 46.4735 236.46C46.4735 237.494 46.9998 239.167 48.2216 239.337" fill="#FFB9B0"/>
<path d="M23.2019 183.094L27.9953 194.391" stroke="#C4C4F7" stroke-width="0.75" stroke-linecap="round" stroke-linejoin="round"/>
<path d="M13.2205 193.132L23.0328 200.482" stroke="#C4C4F7" stroke-width="0.75" stroke-linecap="round" stroke-linejoin="round"/>
<path d="M6.90442 206.798L19.0852 208.001" stroke="#C4C4F7" stroke-width="0.75" stroke-linecap="round" stroke-linejoin="round"/>
<path d="M397.555 88.0912C397.555 88.0912 393.175 85.0084 393.025 83.7113C391.997 80.9874 390.585 78.4239 388.833 76.0983C386.602 74.7137 384.157 73.71 381.596 73.1283C380.487 72.9591 374.209 73.5043 374.998 74.3501C375.788 75.196 379.848 74.8953 380.638 75.3652L381.427 75.8352C381.427 75.8352 380.638 76.9066 380.957 77.5457C381.277 78.1848 379.604 79.1811 380.243 80.2714C380.882 81.3616 379.98 81.2864 380.544 82.4331C381.465 84.3128 383.833 85.3655 384.453 84.858C384.923 85.967 386.728 88.2415 388.401 88.0912C390.074 87.9408 394.191 91.8507 394.191 91.8507" fill="#FFB9B0"/>
<path d="M464.306 66.1168C464.437 69.0492 464.306 74.181 465.076 74.9329C465.847 75.6848 468.648 75.572 468.648 75.572C468.648 75.572 458.929 87.8656 458.046 87.1889C457.162 86.5122 445.696 77.151 448.271 76.6622C450.846 76.1735 453.384 76.2863 453.309 74.9517L453.083 70.929" fill="#FFB9B0"/>
<path d="M475.415 131.739C475.415 131.739 456.448 133.882 452.087 133.976C447.726 134.07 447.951 131.796 447.951 131.796C447.708 125.111 447.081 118.445 446.072 111.833C445.245 108.242 444.869 106.926 444.192 103.524C442.557 96.0051 442.632 94.5013 440.902 85.1589L452.181 76.0609C452.684 77.1894 453.522 78.1359 454.581 78.7715C455.64 79.4072 456.87 79.7012 458.102 79.6136C459.753 79.7432 461.407 79.3958 462.867 78.6127C464.326 77.8296 465.53 76.6437 466.335 75.1962L481.787 85.4596L483.234 110.404L481.355 130.95" fill="#FCA70C"/>
<path d="M464.55 63.4478C464.208 64.931 463.762 66.3883 463.215 67.8088C462.907 68.9299 462.215 69.9072 461.26 70.5703C460.305 71.2333 459.147 71.54 457.989 71.4367L452.181 71.5683C450.599 71.801 448.986 71.461 447.632 70.6097C446.448 69.5758 446.429 67.8276 446.166 66.399C445.827 64.5192 445.545 62.6395 445.339 60.8725C444.925 57.2476 444.755 53.5989 444.831 49.9511C444.819 49.4528 444.863 48.9546 444.963 48.4661C444.981 48.2623 445.067 48.0705 445.207 47.921C445.401 47.7517 445.646 47.6524 445.902 47.639C449.533 47.0696 453.207 46.8367 456.88 46.9435C459.497 46.7958 462.094 47.473 464.305 48.8797C466.217 50.6822 467.579 52.9894 468.234 55.534C468.366 55.9288 468.478 56.4551 468.234 56.6995" fill="#FFB9B0"/>
<path d="M422.011 199.373C422.285 201.081 422.668 202.77 423.157 204.429C423.646 205.726 427.876 204.542 428.158 203.696C427.928 201.342 427.481 199.013 426.823 196.741" fill="#ED9C80"/>
<path d="M429.643 204.768C430 206.159 430.47 208.828 430.47 208.828L426.241 210.708L425.545 210.05C424.89 210.821 424.092 211.46 423.195 211.929C421.878 212.465 420.503 212.843 419.098 213.057C415.338 213.452 412.688 212.757 412.481 212.249C411.56 210.106 416.466 209.542 417.425 209.279C418.542 208.988 419.561 208.405 420.377 207.589C421.193 206.772 421.777 205.753 422.068 204.636C422.293 203.508 422.068 203.32 422.631 203.358C422.831 203.362 423.028 203.408 423.209 203.492C423.39 203.576 423.552 203.697 423.684 203.847C424.053 204.257 424.54 204.545 425.078 204.669C425.616 204.794 426.18 204.749 426.692 204.542C427.312 204.299 427.839 203.864 428.196 203.301C428.553 203.378 428.881 203.558 429.138 203.819C429.395 204.079 429.571 204.409 429.643 204.768Z" fill="#38287C"/>
<path d="M440.715 150.086C433.582 151.344 426.3 151.515 419.116 150.593C420.056 153.262 422.349 156.702 423.214 160.462C426.09 172.925 427.105 189.654 427.82 199.937C427.82 199.937 426.447 202.587 422.011 200.576C415.432 184.222 403.834 151.138 403.947 143.939C404.078 134.784 426.917 132.66 443.666 130.329" fill="#453087"/>
<path d="M469.945 131.758C475.208 135.518 440.771 150.086 440.771 150.086C437.055 150.809 433.278 151.168 429.492 151.157C429.109 150.487 428.825 149.765 428.646 149.014C428.458 148.018 428.552 146.984 428.383 145.969C428.156 144.989 427.722 144.069 427.109 143.271C426.496 142.473 425.719 141.817 424.831 141.345C423.095 140.349 421.177 139.71 419.191 139.465C414.945 139.028 410.668 138.953 406.409 139.239C416.766 131.608 437.951 130.593 447.764 129.972C449.737 133.149 469.136 131.194 469.945 131.758Z" fill="#38287C"/>
<path d="M432.932 208.076C432.911 209.809 432.992 211.541 433.177 213.264C433.44 214.618 437.82 214.166 438.233 213.396C438.456 211.039 438.456 208.666 438.233 206.309" fill="#ED9C80"/>
<path d="M439.511 214.712C439.624 216.14 439.624 218.847 439.624 218.847L435.132 219.937L434.568 219.167C433.791 219.808 432.897 220.293 431.936 220.595C430.549 220.91 429.128 221.049 427.707 221.009C423.947 220.764 421.447 219.599 421.315 219.129C420.789 216.855 425.695 217.136 426.71 217.061C427.859 216.965 428.961 216.567 429.905 215.907C430.85 215.246 431.602 214.347 432.086 213.302C432.481 212.23 432.256 211.986 432.857 212.136C433.253 212.227 433.598 212.47 433.816 212.813C434.108 213.281 434.538 213.647 435.045 213.862C435.553 214.077 436.115 214.131 436.654 214.016C437.303 213.877 437.893 213.542 438.346 213.057C438.678 213.193 438.964 213.421 439.17 213.714C439.377 214.007 439.495 214.353 439.511 214.712Z" fill="#38287C"/>
<path d="M481.373 130.987C473.617 131.666 465.83 131.917 458.046 131.739C455.057 131.739 432.519 135.968 430.357 139.784C426.823 146.063 432.669 182.793 432.124 209.091C432.124 209.091 434.831 211.347 439.643 209.222C440.827 196.309 448.459 165.838 443.196 151.608C455.621 153.262 465.64 154.898 477.031 151.157C478.431 150.684 479.693 149.875 480.706 148.8C481.719 147.725 482.452 146.417 482.84 144.991C483.93 141.57 483.31 134.051 481.373 130.987Z" fill="#453087"/>
<path d="M452.087 76.0609L448.854 76.2489C446.576 76.3725 444.325 76.8024 442.162 77.5271C439.079 78.655 436.917 81.5122 434.417 83.7491C431.917 85.986 419.53 97.7909 417.199 98.2232C414.868 98.6556 394.454 84.595 394.454 84.595L389.454 89.5764C389.454 89.5764 411.635 110.066 418.233 110.103C421.447 110.103 439.154 100.705 444.812 97.1706L452.087 76.0609Z" fill="#FCA70C"/>
<g style="mix-blend-mode:multiply" opacity="0.25">
<path d="M418.289 106.231C413.74 106.494 392.856 90.5536 390.431 88.6926L389.454 89.6513C389.454 89.6513 411.635 110.141 418.233 110.178C420.921 110.178 433.647 103.731 441.09 99.4636L442.97 98.3546L441.805 91.4559C441.805 91.4559 423.139 105.968 418.289 106.231Z" fill="#CE4A30"/>
</g>
<path d="M397.029 135.085H447.782L438.684 105.423C438.437 104.621 437.938 103.921 437.26 103.426C436.583 102.932 435.763 102.669 434.925 102.678H390.506C390.109 102.675 389.717 102.766 389.362 102.943C389.007 103.12 388.698 103.378 388.462 103.697C388.225 104.016 388.068 104.386 388.002 104.777C387.935 105.169 387.963 105.57 388.081 105.949L397.029 135.085Z" fill="#A4A4F7"/>
<path d="M396.39 135.085H446.372L437.274 105.423C437.025 104.623 436.524 103.924 435.848 103.43C435.171 102.936 434.353 102.672 433.515 102.678H389.115C388.72 102.679 388.33 102.772 387.977 102.95C387.623 103.128 387.317 103.387 387.081 103.705C386.846 104.022 386.688 104.391 386.62 104.78C386.552 105.17 386.576 105.57 386.69 105.949L395.412 134.352C395.474 134.564 395.602 134.75 395.778 134.882C395.955 135.014 396.169 135.086 396.39 135.085Z" fill="#7A74D1"/>
<g style="mix-blend-mode:multiply" opacity="0.25">
<g style="mix-blend-mode:multiply" opacity="0.25">
<path d="M474.419 90.3657C472.471 99.7665 471.215 109.297 470.659 118.882C461.787 122.322 458.178 127.453 449.493 131.307C449.493 131.307 442.651 130.179 441.974 132.754C441.542 134.239 449.982 135.423 449.982 135.423C458.027 135.423 479.231 129.596 480.678 129.201C482.126 128.807 486.317 101.851 486.449 87.2077C486.696 85.1309 486.217 83.0327 485.096 81.2677C484.371 80.4598 483.479 79.8185 482.483 79.3879C477.495 76.7668 471.969 75.3323 466.336 75.196" fill="#CE4A30"/>
</g>
</g>
<path d="M450.771 133.074C450.213 132.546 449.543 132.151 448.81 131.92C448.077 131.689 447.302 131.627 446.542 131.739C445.414 131.739 444.286 131.852 443.158 132.002C442.651 132.002 442.049 132.209 442.012 132.754C441.974 133.299 444.493 132.754 445.771 133.13C443.158 133.356 440.535 133.431 437.914 133.356C437.617 133.29 437.309 133.29 437.011 133.356C436.867 133.402 436.741 133.492 436.65 133.614C436.559 133.735 436.508 133.881 436.504 134.032C436.543 134.271 436.67 134.486 436.861 134.634C437.644 135.243 438.582 135.62 439.568 135.724C443.558 136.55 447.702 136.184 451.486 134.672" fill="#FFB9B0"/>
<path d="M473.854 90.2342C473.647 102.453 472.783 108.035 473.027 120.31C466.899 121.626 458.421 128.562 449.737 132.435C449.512 133.411 449.611 134.434 450.019 135.348C450.677 135.593 479.287 128.638 481.561 126.532C483.836 124.427 486.317 101.776 486.486 87.0574C486.733 84.9806 486.255 82.8824 485.133 81.1174C484.408 80.3096 483.516 79.6683 482.52 79.2376C477.508 76.6632 471.969 75.2802 466.335 75.1962" fill="#FCA70C"/>
<path opacity="0.45" d="M422.18 119.389C422.368 121.983 419.285 124.107 415.319 124.107C411.353 124.107 407.969 121.983 407.8 119.389C407.631 116.795 410.695 114.69 414.68 114.69C418.665 114.69 421.992 116.795 422.18 119.389Z" stroke="#A4A4F7" stroke-miterlimit="10"/>
<path d="M419.53 119.564C419.586 118.122 417.588 116.873 415.067 116.775C412.546 116.677 410.457 117.766 410.401 119.208C410.345 120.65 412.343 121.899 414.864 121.997C417.384 122.095 419.474 121.006 419.53 119.564Z" fill="#A4A4F7"/>
<path d="M455.602 55.6467C455.508 55.1767 454.493 55.1015 453.478 55.2143C452.014 55.3198 450.571 55.6299 449.192 56.1354C448.628 56.5677 448.666 56.8685 448.365 56.9061C448.064 56.9437 448.064 56.6429 447.406 56.3422C446.339 56.1371 445.241 56.1371 444.173 56.3422C443.158 56.4737 442.294 56.6993 442.294 57.1505C442.289 57.6483 442.426 58.1371 442.688 58.5603C442.895 58.6919 442.895 58.6731 443.703 60.44C443.765 60.6949 443.879 60.9342 444.039 61.1423C444.198 61.3504 444.399 61.5229 444.63 61.6486C444.86 61.7743 445.114 61.8504 445.375 61.8721C445.636 61.8939 445.899 61.8607 446.147 61.7747C447.839 61.3987 447.933 59.5001 448.027 58.6919C448.121 57.8836 448.271 57.7896 448.534 57.752C448.798 57.7144 448.967 57.752 449.286 58.5415C449.606 59.331 449.831 60.9852 451.561 61.0791C453.798 61.2107 454.775 60.44 455.095 58.9926C455.508 57.1129 455.414 57.1129 455.583 56.8685C456.144 56.8624 456.704 56.9064 457.256 57.0001V56.4174C456.689 56.1969 456.136 55.9395 455.602 55.6467ZM447.388 59.5753C447.435 60.0655 447.289 60.5547 446.979 60.9379C446.67 61.321 446.223 61.5675 445.734 61.6243C444.718 61.7559 444.23 61.2107 443.685 59.8761C443.289 59.1536 443.169 58.312 443.346 57.5076C443.515 57.1881 444.079 57.2068 445.358 57.1129C446.636 57.0189 447.068 57.0189 447.237 57.5828C447.383 58.2362 447.434 58.9074 447.388 59.5753ZM454.719 58.5039C454.512 59.9137 453.986 60.5904 452.576 60.7596C450.583 61.004 450.189 60.2145 449.888 59.2558C449.671 58.6195 449.55 57.9541 449.531 57.282C449.531 56.6993 450.001 56.6053 451.26 56.3798C452.519 56.1542 454.211 55.8534 454.456 56.1166C454.85 56.8468 454.963 57.6958 454.775 58.5039H454.719Z" fill="#483A99"/>
<path d="M469.174 52.5263C469.066 51.5105 468.877 50.5048 468.61 49.5187C468.303 48.2237 467.728 47.0075 466.922 45.9487C466.116 44.8899 465.096 44.012 463.929 43.3719C460.642 41.739 456.871 41.3646 453.327 42.3192C451.448 42.8644 450.658 43.8794 449.662 43.8418C448.718 43.6694 447.802 43.3723 446.936 42.9584C439.417 40.2327 440.62 47.6577 441.429 49.6879C441.786 50.5902 443.515 51.2481 443.741 51.5676C443.923 52.568 444.042 53.5788 444.098 54.594C444.157 54.8417 444.273 55.0723 444.436 55.268C444.599 55.4636 444.805 55.6189 445.038 55.7219C445.038 55.7219 445.038 53.3158 445.038 52.9963C445.06 52.5655 445.172 52.144 445.366 51.7589C445.56 51.3737 445.832 51.0333 446.166 50.7593C447.013 50.3226 447.94 50.0605 448.891 49.9886C450.805 50.0332 452.702 50.3432 454.531 50.9097C455.959 52.1316 456.316 54.9136 456.711 56.549C456.899 57.3197 457.087 57.8272 457.407 57.8272C457.632 55.5715 458.422 55.5151 459.756 56.2858C460.153 56.6785 460.461 57.152 460.659 57.6742C460.857 58.1964 460.94 58.755 460.903 59.3122C460.961 60.0406 460.769 60.7671 460.359 61.3719C459.949 61.9767 459.345 62.4238 458.647 62.6394C458.102 62.7522 459.719 65.8162 460.527 66.5869C460.763 66.8479 461.028 67.0812 461.316 67.2824C461.611 67.4258 461.92 67.5392 462.237 67.6208L463.309 67.9027C463.79 68.0762 464.309 68.1215 464.813 68.0343C465.602 67.8087 466.035 66.9628 466.392 66.1545C466.974 64.9327 467.67 63.7297 468.159 62.395C469.241 59.225 469.588 55.8503 469.174 52.5263Z" fill="#483A99"/>
<path d="M605.908 164.992H509.871L521.375 156.477V114.934C521.375 113.272 522.034 111.678 523.207 110.501C524.381 109.324 525.973 108.661 527.635 108.656H605.908C607.573 108.656 609.17 109.317 610.347 110.495C611.524 111.672 612.186 113.269 612.186 114.934V158.714C612.186 160.379 611.524 161.976 610.347 163.153C609.17 164.33 607.573 164.992 605.908 164.992Z" fill="#D5D2FF"/>
<path opacity="0.45" d="M603.839 116.758H559.947V120.949H603.839V116.758Z" fill="white"/>
<path opacity="0.45" d="M603.839 123.036H559.947V127.228H603.839V123.036Z" fill="white"/>
<path opacity="0.45" d="M603.839 129.314H559.947V133.506H603.839V129.314Z" fill="white"/>
<path opacity="0.45" d="M603.839 135.423H559.947V139.615H603.839V135.423Z" fill="white"/>
<path opacity="0.45" d="M590.568 142.736H559.947V146.928H590.568V142.736Z" fill="white"/>
<path d="M550.135 116.758H535.304C531.784 116.758 528.931 119.611 528.931 123.13V142.623C528.931 146.142 531.784 148.995 535.304 148.995H550.135C553.654 148.995 556.507 146.142 556.507 142.623V123.13C556.507 119.611 553.654 116.758 550.135 116.758Z" fill="#A9ADFF"/>
<path opacity="0.45" d="M556.507 153.018H528.931V156.477H556.507V153.018Z" fill="white"/>
<path d="M545.436 137.679H535.436C535.161 137.683 534.892 137.595 534.674 137.428C534.456 137.26 534.3 137.024 534.233 136.758L532.353 129.653C532.304 129.467 532.298 129.274 532.336 129.086C532.373 128.898 532.453 128.722 532.569 128.57C532.685 128.417 532.834 128.294 533.005 128.208C533.176 128.122 533.364 128.076 533.556 128.074H547.41C547.602 128.072 547.793 128.115 547.965 128.2C548.138 128.285 548.289 128.409 548.406 128.562C548.523 128.715 548.602 128.894 548.638 129.083C548.674 129.272 548.665 129.467 548.613 129.653L546.733 136.758C546.659 137.039 546.488 137.285 546.251 137.454C546.014 137.622 545.726 137.702 545.436 137.679Z" fill="white"/>
<path d="M547.202 139.277H535.153C535.088 139.277 535.026 139.251 534.98 139.206C534.934 139.16 534.909 139.098 534.909 139.033C534.909 138.968 534.934 138.906 534.98 138.86C535.026 138.814 535.088 138.788 535.153 138.788H547.014L551.206 124.164C551.219 124.109 551.25 124.061 551.295 124.027C551.34 123.992 551.394 123.974 551.451 123.976H554.063C554.128 123.976 554.19 124.002 554.236 124.047C554.282 124.093 554.308 124.155 554.308 124.22C554.31 124.254 554.306 124.288 554.295 124.32C554.284 124.351 554.266 124.381 554.243 124.405C554.22 124.43 554.192 124.45 554.161 124.463C554.131 124.477 554.097 124.484 554.063 124.483H551.639L547.428 139.108C547.415 139.158 547.386 139.201 547.345 139.232C547.304 139.263 547.254 139.279 547.202 139.277Z" fill="white"/>
<path d="M536.995 141.251C536.99 141.636 536.833 142.005 536.559 142.276C536.284 142.546 535.914 142.698 535.529 142.698C535.171 142.658 534.841 142.487 534.601 142.218C534.361 141.949 534.228 141.602 534.228 141.241C534.228 140.881 534.361 140.534 534.601 140.265C534.841 139.996 535.171 139.825 535.529 139.785C535.918 139.785 536.29 139.939 536.565 140.214C536.84 140.489 536.995 140.862 536.995 141.251Z" fill="white"/>
<path d="M546.131 142.717C546.941 142.717 547.597 142.061 547.597 141.251C547.597 140.441 546.941 139.785 546.131 139.785C545.321 139.785 544.665 140.441 544.665 141.251C544.665 142.061 545.321 142.717 546.131 142.717Z" fill="white"/>
<path d="M249.092 106.964H371.464L356.821 96.1366V29.1798C356.821 27.056 355.977 25.0192 354.475 23.5174C352.974 22.0157 350.937 21.172 348.813 21.172H249.092C248.041 21.172 247.001 21.3793 246.03 21.7819C245.06 22.1846 244.178 22.7747 243.436 23.5186C242.694 24.2624 242.106 25.1453 241.706 26.1167C241.305 27.0882 241.101 28.129 241.103 29.1798V98.9751C241.103 101.094 241.945 103.126 243.443 104.624C244.941 106.122 246.973 106.964 249.092 106.964Z" fill="#D5D2FF"/>
<g opacity="0.45">
<path opacity="0.45" d="M251.743 38.9354L307.666 38.9354V33.5781L251.743 33.5781V38.9354Z" fill="white"/>
<path opacity="0.45" d="M251.743 46.9434L307.666 46.9434V41.5861L251.743 41.5861V46.9434Z" fill="white"/>
<path opacity="0.45" d="M251.743 54.9324L307.666 54.9324V49.5751L251.743 49.5751V54.9324Z" fill="white"/>
<path opacity="0.45" d="M251.743 62.7145L307.666 62.7145V57.3572L251.743 57.3572V62.7145Z" fill="white"/>
<path opacity="0.45" d="M251.743 70.5154H307.666V65.1581H251.743V70.5154Z" fill="white"/>
<path opacity="0.45" d="M251.743 84.6702H307.666V79.3129H251.743V84.6702Z" fill="white"/>
<path opacity="0.45" d="M251.724 93.0913L347.178 93.0913V87.734L251.724 87.734V93.0913Z" fill="white"/>
</g>
<path d="M320.147 74.6698H339.076C343.551 74.6698 347.178 71.0425 347.178 66.5681V41.6989C347.178 37.2244 343.551 33.5972 339.076 33.5972H320.147C315.673 33.5972 312.045 37.2244 312.045 41.6989V66.5681C312.045 71.0425 315.673 74.6698 320.147 74.6698Z" fill="#C4C4F7"/>
<path opacity="0.45" d="M312.045 84.2001H347.178V79.7826H312.045V84.2001Z" fill="white"/>
<path d="M326.143 60.252H338.907C339.256 60.2506 339.595 60.1336 339.87 59.9194C340.145 59.7051 340.342 59.4056 340.429 59.0677L342.892 50.0261C342.955 49.7895 342.963 49.5416 342.916 49.3013C342.868 49.0611 342.766 48.8351 342.617 48.6407C342.468 48.4463 342.276 48.2887 342.057 48.1802C341.837 48.0717 341.595 48.0151 341.351 48.0148H323.7C323.455 48.0151 323.213 48.0717 322.994 48.1802C322.774 48.2887 322.582 48.4463 322.433 48.6407C322.284 48.8351 322.182 49.0611 322.134 49.3013C322.087 49.5416 322.095 49.7895 322.158 50.0261L324.621 59.0677C324.708 59.4056 324.905 59.7051 325.18 59.9194C325.456 60.1336 325.794 60.2506 326.143 60.252Z" fill="white"/>
<path d="M323.906 62.2823H339.264C339.349 62.2823 339.43 62.2486 339.49 62.1887C339.55 62.1287 339.584 62.0475 339.584 61.9627C339.579 61.8813 339.543 61.8047 339.484 61.7488C339.424 61.6929 339.346 61.6618 339.264 61.662H324.226L318.869 43.0148C318.852 42.9486 318.812 42.8902 318.758 42.8492C318.703 42.8082 318.636 42.7871 318.568 42.7892H315.222C315.137 42.7892 315.056 42.8229 314.996 42.8828C314.936 42.9427 314.902 43.024 314.902 43.1088C314.902 43.1935 314.936 43.2748 314.996 43.3347C315.056 43.3947 315.137 43.4283 315.222 43.4283H318.323L323.606 62.0379C323.619 62.1076 323.656 62.1703 323.711 62.215C323.766 62.2597 323.835 62.2835 323.906 62.2823Z" fill="white"/>
<path d="M336.915 64.7822C336.915 65.154 337.025 65.5174 337.231 65.8266C337.438 66.1357 337.731 66.3766 338.075 66.5189C338.418 66.6612 338.796 66.6984 339.161 66.6259C339.526 66.5533 339.861 66.3743 340.123 66.1114C340.386 65.8485 340.565 65.5136 340.638 65.1489C340.71 64.7843 340.673 64.4064 340.531 64.0629C340.389 63.7194 340.148 63.4258 339.839 63.2193C339.53 63.0127 339.166 62.9025 338.794 62.9025C338.296 62.9025 337.818 63.1005 337.465 63.453C337.113 63.8056 336.915 64.2837 336.915 64.7822Z" fill="white"/>
<path d="M323.324 64.7822C323.324 65.154 323.434 65.5174 323.641 65.8266C323.847 66.1357 324.141 66.3766 324.484 66.5189C324.828 66.6612 325.206 66.6984 325.57 66.6259C325.935 66.5533 326.27 66.3743 326.533 66.1114C326.796 65.8485 326.975 65.5136 327.047 65.1489C327.12 64.7843 327.082 64.4064 326.94 64.0629C326.798 63.7194 326.557 63.4258 326.248 63.2193C325.939 63.0127 325.575 62.9025 325.203 62.9025C324.705 62.9025 324.227 63.1005 323.874 63.453C323.522 63.8056 323.324 64.2837 323.324 64.7822Z" fill="white"/>
<path d="M532.127 459.399C561.912 459.399 586.057 456.858 586.057 453.722C586.057 450.587 561.912 448.046 532.127 448.046C502.342 448.046 478.197 450.587 478.197 453.722C478.197 456.858 502.342 459.399 532.127 459.399Z" fill="#EAE6FF"/>
<path d="M503.197 445.658C501.725 447.551 499.78 449.023 497.558 449.925C494.569 451.26 488.159 451.805 491.731 453.064C494.928 453.869 498.269 453.914 501.487 453.196C503.666 452.893 505.866 452.761 508.066 452.801C511.299 452.801 511.337 452.576 510.904 448.91C510.284 443.872 504.645 442.801 503.197 445.658Z" fill="#9AA3F4"/>
<path d="M562.052 443.835C561.864 444.85 563.312 447.933 560.736 450.188C558.161 452.444 552.278 454.831 556.169 454.925C559.462 455.039 562.741 454.429 565.774 453.14C567.748 452.162 566.169 450.621 568.613 449.85C571.846 448.835 571.188 446.448 569.496 444.981C567.372 440.132 562.654 440.526 562.052 443.835Z" fill="#9AA3F4"/>
<path d="M549.684 341.181C549.684 341.181 557.429 318.399 535.454 299.639C535.454 299.639 523.687 304.338 514.251 304.902C510.493 305.232 506.711 305.15 502.972 304.658C502.972 304.658 502.352 324.884 502.333 335.786L549.684 341.181Z" fill="#4A41A3"/>
<path d="M500.622 378.983C500.19 368.814 511.243 370.149 515.303 377.743C523.724 393.476 512.201 429.699 510.679 446.861C508.834 447.642 506.778 447.768 504.852 447.219C504.102 446.788 503.509 446.129 503.16 445.339C503.404 424.304 501.073 389.886 500.622 378.983Z" fill="#4A41A3"/>
<path d="M514.927 380.525C513.649 384.698 499.57 389.059 500.716 373.927C501.205 367.216 502.596 330.166 502.822 326.595C503.047 323.023 503.686 317.797 505.416 317.196C514.044 313.944 529.307 325.241 527.033 338.644C525.529 347.554 517.559 371.915 514.927 380.525Z" fill="#4A41A3"/>
<path d="M537.108 386.314C533.687 376.709 544.759 375.036 551.037 380.92C565.737 394.773 566.301 427.425 569.835 444.267C567.897 445.453 565.678 446.102 563.406 446.147C563.067 446.139 562.734 446.056 562.432 445.903C562.129 445.75 561.865 445.532 561.658 445.264C555.755 425.037 540.736 396.634 537.108 386.314Z" fill="#4A41A3"/>
<path d="M551.638 383.175C552.014 387.499 540.36 396.446 535.661 382.01C533.612 375.6 524.833 337.723 523.724 334.301C522.615 330.88 522.935 323.869 524.288 322.609C531.055 316.35 546.356 321.857 549.289 335.147C551.263 344.001 550.774 374.209 551.638 383.175Z" fill="#4A41A3"/>
<path d="M491.148 217.343C491.543 216.911 491.938 216.497 492.295 216.027C495.096 212.475 495.49 209.317 498.066 205.181C498.624 203.956 499.252 202.764 499.945 201.61C501.123 200.218 502.543 199.053 504.137 198.17C505.34 197.531 504.306 200.2 504.306 200.2C504.306 200.2 505.322 198.715 506.318 198.809C506.694 198.809 506.769 201.121 506.769 201.516C506.819 204.639 506.096 207.725 504.664 210.501C504.269 211.12 504.018 211.821 503.931 212.55C504.847 212.403 505.699 211.984 506.374 211.347C506.709 211.032 507.113 210.801 507.555 210.674C507.996 210.546 508.461 210.526 508.912 210.614C508.78 210.978 508.616 211.33 508.423 211.666C507.536 213.85 505.976 215.694 503.968 216.93C502.709 217.531 501.242 217.644 500.021 218.302C497.784 219.486 496.712 222.231 494.381 223.34" fill="#F2A181"/>
<path d="M511.188 201.802L504.563 199.031C503.941 198.771 503.225 199.064 502.965 199.687L497.074 213.768C496.814 214.391 497.108 215.106 497.73 215.367L504.355 218.138C504.977 218.398 505.693 218.105 505.953 217.482L511.844 203.401C512.104 202.778 511.81 202.063 511.188 201.802Z" fill="#5E5DBB"/>
<path d="M511.471 202.942L504.031 199.83L497.931 214.414L505.37 217.526L511.471 202.942Z" fill="#B4B4DB"/>
<path d="M511.487 231.742C507.848 231.995 504.244 232.625 500.735 233.622C493.084 235.915 490.453 239.449 487.802 240.915C492.934 234.393 498.667 220.558 498.667 220.558C498.667 220.558 491.75 214.918 490.96 216.234C490.171 217.55 461.204 251.48 462.106 256.968C462.482 259.224 465.865 261.461 468.798 261.367C477.012 261.085 486.561 258.096 496.562 254.826C500.96 253.378 502.314 256.48 502.314 256.48" fill="#7A74D1"/>
<path d="M487.802 240.859C487.802 240.859 484.155 248.134 483.103 248.697C482.05 249.261 485.753 247.156 487.802 245.051C489.695 242.663 491.327 240.079 492.671 237.344C490.969 238.403 489.343 239.578 487.802 240.859Z" fill="#6960C4"/>
<path d="M499.25 205.238C499.407 205.385 499.534 205.562 499.621 205.759C499.708 205.956 499.755 206.169 499.757 206.384C500.167 207.994 500.122 209.686 499.626 211.272C499.184 212.229 498.544 213.082 497.746 213.772C496.829 214.558 495.827 215.239 494.757 215.802" fill="#F2A181"/>
<path d="M511.656 193C509.776 193.564 508.705 196.045 508.047 197.756C507.302 199.838 506.815 202.003 506.599 204.204C506.298 205.709 506.409 207.267 506.919 208.715C507.256 209.393 507.679 210.025 508.178 210.595C508.424 210.962 508.729 211.286 509.081 211.553C509.259 211.686 509.466 211.774 509.685 211.81C509.904 211.846 510.129 211.829 510.34 211.76C510.942 211.535 511.186 210.82 511.355 210.2C512.294 206.09 513.853 202.148 515.979 198.508" fill="#170D54"/>
<path d="M509.513 205.858C509.513 204.561 508.103 203.715 506.938 205.069C506.032 206.485 505.58 208.144 505.641 209.824C505.641 211.704 507.013 212.061 508.197 212.324" fill="#F2A181"/>
<path d="M496.581 238.415C498.968 235.671 506.562 231.159 516.694 231.479C523.668 231.705 542.672 232.851 544.796 237.532C545.887 239.919 547.052 264.356 545.454 272.777C544.27 279.131 541.206 294.827 541.206 298.605C541.206 302.383 543.236 304.019 542.296 305.128C540.172 307.59 525.623 308.624 518.799 308.624C512.709 308.624 502.37 307.008 501.882 305.053C501.111 302.158 503.066 302.271 503.329 299.244C503.592 296.218 504.363 276.537 503.329 273.322C501.318 267.514 500.34 258.04 498.742 253.735C497.408 250.483 494.193 241.16 496.581 238.415Z" fill="#7A74D1"/>
<path d="M540.116 258.19C540.849 259.694 545.755 267.589 545.755 267.589L545.962 268.548C545.879 269.96 545.71 271.367 545.454 272.758C544.27 279.112 541.206 294.808 541.206 298.586C541.206 302.365 543.086 303.944 542.296 305.109C540.623 307.384 513.198 312.496 514.533 306.143C514.664 305.579 537.559 288.097 537.672 287.515C538.744 282.496 539.665 278.886 540.116 275.24C541.225 266.442 539.496 256.687 540.116 258.19Z" fill="#6960C4"/>
<path d="M511.168 222.738C511.188 225.5 511.056 228.261 510.773 231.009C510.178 231.418 509.549 231.777 508.893 232.08C508.893 232.08 510.002 238.979 511.751 238.471C513.499 237.964 524.909 232.193 524.909 232.193C524.909 232.193 523.292 231.516 523.292 230.877C523.292 230.238 524.834 217.719 524.834 217.719" fill="#FFBE9D"/>
<path d="M519.1 193.865C517.446 194.316 513.047 193.395 511.844 195.219C510.692 197.632 509.772 200.149 509.1 202.738C508.259 205.206 507.544 207.716 506.957 210.257C506.092 213.49 504.682 219.43 507.859 222.137C508.512 222.812 509.372 223.249 510.303 223.377C511.807 223.659 513.292 223.96 514.795 224.223C517.153 224.861 519.629 224.919 522.014 224.392C525.097 223.377 526.788 219.129 527.653 216.253L532.183 199.749L519.1 193.865Z" fill="#FFBE9D"/>
<path d="M510.886 241.573C510.886 241.573 510.209 272.608 509.006 291.481L513.574 297.759L516.713 289.883C517.335 273.796 516.34 257.687 513.743 241.799L510.886 241.573Z" fill="#3B2E7A"/>
<path d="M509.833 238.848L509.946 239.28C510.136 240.089 510.453 240.863 510.886 241.573L513.686 241.799C513.686 241.799 515.566 240.784 515.829 239.712C516.093 238.641 512.709 236.893 512.709 236.893L512.295 237.062C511.35 237.425 510.514 238.028 509.871 238.81L509.833 238.848Z" fill="#3B2E7A"/>
<path d="M523.48 228.941C524.743 229.812 525.828 230.916 526.676 232.193C525.228 235.483 521.976 241.329 518.405 243.998C517.235 241.144 515.28 238.68 512.766 236.893C512.766 236.893 522.578 235.163 523.48 228.941Z" fill="white"/>
<path d="M512.709 236.855C510.297 237.953 508.314 239.816 507.07 242.156C506.705 238.861 506.96 235.526 507.822 232.325C507.822 232.325 510.115 229.392 510.904 229.336C510.859 231.955 511.48 234.542 512.709 236.855Z" fill="white"/>
<path d="M513.179 306.162C510.541 306.501 508.136 307.848 506.468 309.921C506.379 309.99 506.305 310.078 506.253 310.179C506.201 310.28 506.172 310.391 506.168 310.504C506.168 310.786 506.544 310.899 506.826 310.936C508.442 311.199 508.705 310.166 510.209 309.545L513.179 308.286" fill="#F2A181"/>
<path d="M501.374 280.898L513.668 320.278C513.761 320.493 513.8 320.728 513.78 320.962C513.76 321.196 513.682 321.421 513.554 321.617C513.425 321.813 513.249 321.973 513.043 322.084C512.836 322.195 512.605 322.253 512.371 322.252L486.731 324.508C486.245 324.483 485.779 324.311 485.393 324.016C485.008 323.721 484.72 323.315 484.569 322.854L471.411 284.056C471.091 283.003 472.614 281.499 473.648 281.48L499.287 279.243C499.763 279.27 500.219 279.444 500.593 279.74C500.966 280.036 501.239 280.44 501.374 280.898Z" fill="#E9E6FF"/>
<path d="M500.528 281.969L512.653 320.748C512.751 320.964 512.793 321.201 512.775 321.438C512.757 321.674 512.68 321.902 512.551 322.1C512.421 322.299 512.244 322.462 512.035 322.574C511.826 322.686 511.593 322.743 511.356 322.741L485.716 324.978C485.23 324.955 484.762 324.785 484.376 324.489C483.99 324.194 483.703 323.787 483.554 323.324L471.449 284.544C471.355 284.329 471.316 284.095 471.336 283.861C471.356 283.627 471.434 283.402 471.562 283.206C471.691 283.01 471.867 282.85 472.073 282.739C472.28 282.628 472.511 282.57 472.746 282.571L498.385 280.315C498.869 280.339 499.333 280.51 499.716 280.806C500.1 281.101 500.383 281.507 500.528 281.969Z" fill="#E0D9FF"/>
<path d="M480.058 280.653L480.96 284.056L492.953 283.003L491.975 279.62L480.058 280.653Z" fill="white"/>
<path d="M482.332 277.495L483.517 281.255L489.156 280.729L487.953 276.969C487.702 276.171 487.202 275.475 486.524 274.984C485.847 274.493 485.03 274.233 484.193 274.243C483.83 274.282 483.481 274.407 483.174 274.607C482.868 274.807 482.614 275.077 482.432 275.394C482.251 275.711 482.147 276.067 482.13 276.433C482.112 276.798 482.182 277.162 482.332 277.495ZM483.592 277.495C483.5 277.304 483.456 277.092 483.463 276.88C483.471 276.667 483.53 276.46 483.635 276.275C483.741 276.09 483.889 275.934 484.068 275.819C484.247 275.704 484.451 275.634 484.663 275.616C485.138 275.602 485.603 275.743 485.99 276.018C486.377 276.293 486.663 276.686 486.806 277.138C486.899 277.331 486.942 277.544 486.934 277.758C486.925 277.972 486.865 278.181 486.757 278.366C486.65 278.551 486.499 278.707 486.317 278.821C486.136 278.935 485.93 279.002 485.716 279.018C485.235 279.023 484.767 278.869 484.382 278.58C483.998 278.291 483.72 277.883 483.592 277.42V277.495Z" fill="white"/>
<path d="M522.917 303.417C520.229 303.981 513.067 306.105 512.315 306.462C510.696 307.453 509.167 308.586 507.747 309.846C505.04 312.553 506.431 313.812 505.36 317.478C505.341 317.671 505.341 317.866 505.36 318.06C505.36 318.455 505.886 318.775 506.412 318.417C506.694 318.887 507.521 318.605 507.916 318.079C507.916 318.455 508.424 318.681 509.251 318.229C509.702 317.985 509.627 318.004 510.661 317.083C511.526 316.335 512.511 315.738 513.574 315.316C514.551 314.946 515.499 314.507 516.413 314C517.503 313.286 519.458 313.117 520.398 310.015C520.715 309.358 521.245 308.828 521.902 308.511L526.281 305.767" fill="#FFBE9D"/>
<path d="M539.495 252.965C540.642 257.025 545.379 285.202 545.379 285.202L518.611 304.526L520.829 310.372C520.829 310.372 552.785 299.639 555.342 292.308C557.898 284.977 557.729 251.893 548.894 240.201C546.592 237.625 543.666 235.683 540.398 234.562" fill="#7A74D1"/>
<path d="M512.033 313.568L511.375 314.169C510.865 314.577 510.398 315.037 509.984 315.541C509.533 316.087 509.1 316.65 508.705 317.045C508.499 317.266 508.273 317.468 508.029 317.647C508.472 316.785 509.015 315.977 509.645 315.241C510.115 314.708 510.675 314.263 511.3 313.925L512.033 313.568Z" fill="#F2A181"/>
<path d="M510.566 311.782C510.276 312.034 510.023 312.325 509.814 312.647C509.579 312.949 509.359 313.263 509.156 313.587L508.799 314.132C508.688 314.314 508.587 314.502 508.498 314.696C508.018 315.829 507.386 316.891 506.619 317.854C506.619 317.854 506.769 317.403 507.051 316.782C507.333 316.162 507.709 315.335 508.104 314.527C508.505 313.766 509.025 313.074 509.645 312.478C509.919 312.205 510.229 311.971 510.566 311.782Z" fill="#F2A181"/>
<path d="M508.874 310.354C508.682 310.674 508.468 310.982 508.235 311.275C507.991 311.555 507.765 311.85 507.558 312.158C507.361 312.53 507.185 312.913 507.032 313.305C506.712 314.113 506.412 314.94 506.167 315.56C505.923 316.181 505.772 316.594 505.772 316.594C505.782 316.222 505.819 315.851 505.885 315.485C506.034 314.673 506.287 313.883 506.637 313.136C506.809 312.72 507.023 312.323 507.276 311.951C507.532 311.662 507.801 311.386 508.085 311.124C508.367 310.888 508.631 310.63 508.874 310.354Z" fill="#F2A181"/>
<path d="M529.288 213.264C528.254 212.644 527.408 212.005 526.769 213.001C526.393 213.546 526.186 214.279 525.566 214.448C525.25 214.503 524.925 214.432 524.661 214.249C524.397 214.066 524.216 213.786 524.156 213.471C524.063 212.834 524.148 212.183 524.401 211.591C524.814 210.238 525.228 208.884 525.66 207.531C526.219 206.25 526.318 204.816 525.942 203.471C525.65 202.828 525.212 202.262 524.664 201.816C522.841 200.417 520.695 199.499 518.423 199.147C516.163 198.813 513.922 198.355 511.712 197.775C510.784 197.522 509.915 197.088 509.156 196.497C508.573 195.975 508.105 195.339 507.781 194.627C507.458 193.915 507.286 193.143 507.276 192.361C507.295 190.795 507.751 189.265 508.592 187.944C508.744 188.484 508.966 189.002 509.25 189.485C509.533 188.786 509.947 188.148 510.472 187.605C511.13 191.233 526.45 190.03 530.021 191.628C532.502 192.737 534.551 193.508 534.476 197.493C534.581 197.745 534.75 197.965 534.965 198.132C536.059 199.181 536.927 200.442 537.515 201.839C538.103 203.235 538.4 204.737 538.386 206.253C538.724 210.708 536.13 215.539 533.593 219.223C533.096 220.074 532.461 220.837 531.713 221.479C530.67 222.179 529.404 222.467 528.16 222.287C527.051 222.061 524.871 222.155 524.852 221.046C524.852 220.238 526.562 218.809 527.032 218.151" fill="#3B2E7A"/>
<path d="M525.285 217.475C525.236 217.705 525.235 217.942 525.284 218.172C525.332 218.402 525.429 218.619 525.567 218.809C525.818 219.036 526.131 219.183 526.466 219.229C526.801 219.276 527.143 219.222 527.447 219.073C528.239 218.767 528.937 218.259 529.471 217.6C530.006 216.94 530.358 216.151 530.492 215.313C530.849 213.433 529.815 211.46 528.048 211.967C527.54 212.161 527.106 212.511 526.808 212.967C526.511 213.423 526.366 213.961 526.394 214.505" fill="#FFBE9D"/>
<path d="M511.168 223.415L516.093 224.317C515.429 224.946 514.647 225.436 513.791 225.758C512.936 226.081 512.025 226.23 511.111 226.197" fill="#F2A181"/>
<g opacity="0.3">
<path opacity="0.3" d="M125.479 139.202L132.059 142.51L128.769 134.427" fill="#3939D3"/>
<path opacity="0.3" d="M105.065 128.863C104.911 131.646 105.596 134.412 107.03 136.802C108.465 139.192 110.584 141.097 113.112 142.27C115.641 143.443 118.464 143.83 121.215 143.381C123.966 142.932 126.52 141.668 128.545 139.753C130.57 137.837 131.974 135.358 132.575 132.636C133.175 129.914 132.946 127.074 131.915 124.484C130.884 121.894 129.1 119.672 126.793 118.107C124.486 116.542 121.763 115.705 118.975 115.705C117.198 115.655 115.428 115.955 113.767 116.59C112.106 117.224 110.586 118.18 109.294 119.402C108.002 120.624 106.964 122.088 106.238 123.712C105.512 125.335 105.114 127.086 105.065 128.863Z" fill="#3939D3"/>
<path opacity="0.3" d="M115.573 124.559V133.957C115.573 134.129 115.618 134.297 115.704 134.446C115.79 134.594 115.913 134.718 116.062 134.803C116.21 134.889 116.379 134.934 116.551 134.934C116.722 134.934 116.891 134.889 117.039 134.803L125.16 130.123C125.308 130.034 125.43 129.909 125.515 129.759C125.6 129.609 125.645 129.44 125.645 129.267C125.645 129.095 125.6 128.926 125.515 128.776C125.43 128.626 125.308 128.5 125.16 128.412L117.039 123.731C116.892 123.646 116.725 123.601 116.555 123.6C116.385 123.599 116.218 123.643 116.07 123.726C115.922 123.81 115.798 123.931 115.711 124.077C115.624 124.222 115.576 124.389 115.573 124.559Z" fill="#FEFEFE"/>
</g>
<g opacity="0.3">
<path opacity="0.3" d="M580.756 239.017L574.177 242.325L577.467 234.242" fill="#3939D3"/>
<path opacity="0.3" d="M601.17 228.678C601.324 231.461 600.64 234.227 599.205 236.617C597.771 239.007 595.652 240.912 593.123 242.085C590.594 243.258 587.772 243.645 585.02 243.196C582.269 242.747 579.716 241.483 577.691 239.568C575.665 237.652 574.262 235.173 573.661 232.451C573.06 229.729 573.29 226.889 574.321 224.299C575.351 221.709 577.135 219.487 579.442 217.922C581.749 216.357 584.472 215.52 587.26 215.52C589.037 215.47 590.807 215.77 592.469 216.405C594.13 217.039 595.65 217.994 596.942 219.216C598.234 220.438 599.272 221.903 599.997 223.526C600.723 225.15 601.121 226.901 601.17 228.678Z" fill="#3939D3"/>
<path opacity="0.3" d="M584.779 234.975C587.805 234.975 590.869 234.975 593.67 234.975C594.554 234.975 595.305 233.584 594.234 233.096C594.708 232.953 595.107 232.628 595.343 232.193C595.391 232.08 595.414 231.959 595.412 231.836C595.41 231.713 595.383 231.593 595.331 231.481C595.28 231.37 595.206 231.27 595.114 231.189C595.022 231.108 594.915 231.046 594.798 231.009C595.851 231.253 596.264 229.674 595.456 229.129C595.901 228.805 596.215 228.331 596.339 227.795C596.391 227.525 596.357 227.246 596.243 226.997C596.128 226.747 595.938 226.54 595.7 226.404C595.356 226.261 594.982 226.203 594.61 226.234H590.85C591.34 224.385 591.139 222.421 590.286 220.708C589.986 220.219 589.177 219.637 588.519 220.012C587.862 220.388 588.087 221.253 588.125 221.892C588.115 223.055 587.781 224.192 587.16 225.175C586.539 226.158 585.656 226.948 584.61 227.456C584.61 227.456 584.816 232.456 584.779 234.975Z" fill="#FEFEFE"/>
<path opacity="0.3" d="M583.688 227.531H579.102V234.975H583.688V227.531Z" fill="#FEFEFE"/>
</g>
<g opacity="0.3">
<path opacity="0.3" d="M370.224 125.085L375.017 119.897L368.438 121.194" fill="#3939D3"/>
<path opacity="0.3" d="M352.441 126.288C352.324 128.306 352.816 130.313 353.853 132.048C354.89 133.783 356.424 135.167 358.256 136.021C360.088 136.874 362.135 137.158 364.13 136.836C366.125 136.513 367.978 135.599 369.448 134.211C370.918 132.823 371.937 131.026 372.374 129.053C372.811 127.079 372.646 125.02 371.899 123.142C371.152 121.263 369.858 119.652 368.186 118.517C366.513 117.383 364.538 116.776 362.517 116.777C361.23 116.739 359.949 116.955 358.747 117.413C357.544 117.871 356.444 118.561 355.508 119.444C354.572 120.328 353.82 121.387 353.293 122.561C352.767 123.735 352.478 125.002 352.441 126.288Z" fill="#3939D3"/>
<path opacity="0.3" d="M360.58 130.856C362.573 130.856 364.584 130.856 366.408 130.856C366.99 130.856 367.498 129.859 366.784 129.559C367.1 129.436 367.361 129.202 367.517 128.901C367.58 128.738 367.578 128.558 367.512 128.397C367.445 128.236 367.319 128.107 367.16 128.036C367.855 128.224 368.118 127.077 367.592 126.701C367.891 126.454 368.091 126.107 368.156 125.724C368.198 125.536 368.18 125.339 368.106 125.161C368.032 124.982 367.905 124.831 367.742 124.728C367.521 124.618 367.274 124.572 367.028 124.596H364.547C364.877 123.259 364.751 121.85 364.19 120.592C363.983 120.235 363.456 119.803 363.043 120.085C362.629 120.367 362.742 120.968 362.761 121.382C362.799 122.212 362.612 123.037 362.218 123.769C361.824 124.5 361.238 125.111 360.524 125.536C360.524 125.536 360.618 129.032 360.58 130.856Z" fill="#FEFEFE"/>
<path opacity="0.3" d="M359.866 125.442H356.858V130.837H359.866V125.442Z" fill="#FEFEFE"/>
</g>
<g opacity="0.3">
<path opacity="0.3" d="M417.199 55.4962C419.517 52.5697 420.647 48.8764 420.362 45.1536C420.077 41.4308 418.398 37.9524 415.661 35.413C412.924 32.8736 409.33 31.46 405.596 31.4545C401.862 31.4489 398.264 32.8518 395.519 35.383C392.775 37.9143 391.086 41.3876 390.789 45.1095C390.493 48.8314 391.612 52.5281 393.922 55.4615C396.232 58.3949 399.563 60.3491 403.251 60.9339C406.938 61.5188 410.711 60.6913 413.815 58.6166L419.567 61.6806L417.199 55.4962Z" fill="#3939D3"/>
<path opacity="0.3" d="M399.285 42.15C399.968 41.4739 400.89 41.0946 401.851 41.0946C402.812 41.0946 403.734 41.4739 404.416 42.15L405.356 43.1087L406.296 42.1688C406.636 41.8331 407.038 41.5675 407.48 41.3872C407.922 41.207 408.395 41.1155 408.873 41.1181C409.35 41.1208 409.822 41.2174 410.262 41.4025C410.702 41.5876 411.102 41.8576 411.437 42.197C411.773 42.5364 412.039 42.9386 412.219 43.3807C412.399 43.8228 412.491 44.296 412.488 44.7734C412.485 45.2508 412.389 45.723 412.204 46.1631C412.019 46.6031 411.749 47.0024 411.409 47.3381L407.913 50.8721C407.577 51.2114 407.178 51.4807 406.737 51.6646C406.297 51.8484 405.824 51.9431 405.347 51.9431C404.87 51.9431 404.397 51.8484 403.957 51.6646C403.516 51.4807 403.117 51.2114 402.781 50.8721L399.304 47.3193C398.962 46.9817 398.69 46.5799 398.504 46.1371C398.318 45.6942 398.222 45.2189 398.22 44.7386C398.218 44.2582 398.311 43.7823 398.494 43.3381C398.677 42.8938 398.946 42.4901 399.285 42.15Z" fill="white"/>
</g>
</svg>
